#N struct 1005-point float x0 float y0 float xs float ys float fg float in float gridx float gridy;
#N struct 1018-point float x0 float y0 float xs float ys float fg float in float gridx float gridy;
#N struct 1034-point float x0 float y0 float xs float ys float fg float in float gridx float gridy;
#N struct 1047-point float x0 float y0 float xs float ys float fg float in float gridx float gridy;
#N struct 1063-point float x0 float y0 float xs float ys float fg float in float gridx float gridy;
#N struct 1123-point float x0 float y0 float xs float ys float fg float in float gridx float gridy;
#N struct 1136-point float x0 float y0 float xs float ys float fg float in float gridx float gridy;
#N struct 1155-point float x0 float y0 float xs float ys float fg float in float gridx float gridy;
#N canvas -785 -26 1920 997 12;
#X declare -path ./lib;
#X obj 136 87 declare -path ./lib;
#X obj 136 117 fm;
#X obj 776 117 pm;
#X obj 136 537 processing;
#X obj 136 1227 liveclock;
#X obj 136 877 control;
#X obj 136 448 env_triggers;
#X obj 736 877 main_output;
#X obj 283 87 storage;
#X obj 776 448 env_triggers;
#X obj 459 429 r load_key_config_1;
#X obj 1099 429 r load_key_config_2;
#X connect 1 0 6 0;
#X connect 2 0 9 0;
#X connect 3 0 5 0;
#X connect 6 0 3 0;
#X connect 9 0 3 0;
#X connect 10 0 6 1;
#X connect 11 0 9 1;
