#N struct 1005-point float x0 float y0 float xs float ys float fg float in float gridx float gridy;
#N struct 1018-point float x0 float y0 float xs float ys float fg float in float gridx float gridy;
#N struct 1034-point float x0 float y0 float xs float ys float fg float in float gridx float gridy;
#N struct 1047-point float x0 float y0 float xs float ys float fg float in float gridx float gridy;
#N struct 1063-point float x0 float y0 float xs float ys float fg float in float gridx float gridy;
#N struct 1123-point float x0 float y0 float xs float ys float fg float in float gridx float gridy;
#N struct 1136-point float x0 float y0 float xs float ys float fg float in float gridx float gridy;
#N struct 1155-point float x0 float y0 float xs float ys float fg float in float gridx float gridy;
#N canvas 0 0 1920 997 12;
#X declare -path ./lib;
#X obj 136 47 declare -path ./lib;
#X obj 136 117 fm;
#X obj 486 117 pm;
#X obj 136 387 processing;
#X obj 136 787 liveclock;
#X obj 136 587 control;
#X obj 136 336 env_triggers;
#X obj 306 587 main_output;
#X obj 283 47 storage;
#X obj 486 336 env_triggers;
#X obj 307 317 r load_key_config_1;
#X obj 657 317 r load_key_config_2;
#X text 133 91 FREQUENCY MODULATION;
#X text 483 91 PHASE MODULATION;
#X msg 682 466 15 20 70 15 100 500 30 1000;
#X text 680 402 ENVELOPE PRESETS;
#X msg 682 506 20 15 30 15 20 200 300 15;
#X text 680 432 short envelopes;
#X text 900 432 long envelopes;
#X obj 682 546 s load_env_config_1;
#X obj 682 565 s load_env_config_2;
#X obj 479 317 r load_env_config_1;
#X obj 829 317 r load_env_config_2;
#X obj 902 546 s load_env_config_1;
#X obj 902 565 s load_env_config_2;
#X msg 902 466 30 900 700 50 500 700 1000 200;
#X msg 902 506 20 800 900 30 20 3000 3000 20;
#X connect 1 0 6 0;
#X connect 2 0 9 0;
#X connect 3 0 5 0;
#X connect 6 0 3 0;
#X connect 9 0 3 0;
#X connect 10 0 6 1;
#X connect 11 0 9 1;
#X connect 14 0 19 0;
#X connect 14 0 20 0;
#X connect 16 0 19 0;
#X connect 16 0 20 0;
#X connect 21 0 6 2;
#X connect 22 0 9 2;
#X connect 25 0 23 0;
#X connect 25 0 24 0;
#X connect 26 0 24 0;
#X connect 26 0 23 0;
