#N struct 1005-point float x0 float y0 float xs float ys float fg float in float gridx float gridy;
#N struct 1018-point float x0 float y0 float xs float ys float fg float in float gridx float gridy;
#N struct 1034-point float x0 float y0 float xs float ys float fg float in float gridx float gridy;
#N struct 1047-point float x0 float y0 float xs float ys float fg float in float gridx float gridy;
#N struct 1063-point float x0 float y0 float xs float ys float fg float in float gridx float gridy;
#N struct 1123-point float x0 float y0 float xs float ys float fg float in float gridx float gridy;
#N struct 1136-point float x0 float y0 float xs float ys float fg float in float gridx float gridy;
#N struct 1155-point float x0 float y0 float xs float ys float fg float in float gridx float gridy;
#N canvas 0 0 1920 997 12;
#X declare -path ./lib;
#X obj 136 47 declare -path ./lib;
#X obj 136 117 fm;
#X obj 486 117 pm;
#X obj 136 367 processing;
#X obj 136 767 liveclock;
#X obj 136 567 control;
#X obj 306 567 main_output;
#X obj 283 47 storage;
#X text 133 91 FREQUENCY MODULATION;
#X text 483 91 PHASE MODULATION;
#X text 870 91 ENVELOPE PRESETS;
#X text 870 121 short envelopes;
#X msg 873 147 \; load_env_config_1 15 20 70 15 100 500 30 1000 \; load_env_config_2 20 15 30 15 20 200 300 15;
#X msg 873 237 \; load_env_config_1 30 900 700 50 500 700 1000 200 \; load_env_config_2 20 800 900 30 20 3000 3000 20;
#X text 870 211 long envelopes;
#X obj 656 367 osc_action;
#X obj 136 317 env_triggers 1;
#X obj 486 317 env_triggers 2;
#X text 870 726 2d-synth by Bryan Yep (2024);
#X text 870 746 https://github.com/yepsan95;
#X text 870 786 Feel free to use \, modify \, and share this patch \, but please provide proper attribution by crediting me as the original creator.;
#X connect 1 0 16 0;
#X connect 2 0 17 0;
#X connect 3 0 5 0;
#X connect 16 0 3 0;
#X connect 17 0 3 0;
