#N struct 1005-point float x0 float y0 float xs float ys float fg float in float gridx float gridy;
#N struct 1018-point float x0 float y0 float xs float ys float fg float in float gridx float gridy;
#N struct 1034-point float x0 float y0 float xs float ys float fg float in float gridx float gridy;
#N struct 1047-point float x0 float y0 float xs float ys float fg float in float gridx float gridy;
#N struct 1063-point float x0 float y0 float xs float ys float fg float in float gridx float gridy;
#N struct 1123-point float x0 float y0 float xs float ys float fg float in float gridx float gridy;
#N struct 1136-point float x0 float y0 float xs float ys float fg float in float gridx float gridy;
#N struct 1155-point float x0 float y0 float xs float ys float fg float in float gridx float gridy;
#N canvas 0 0 1920 997 12;
#X declare -path ./lib;
#X obj 136 47 declare -path ./lib;
#X obj 136 117 fm;
#X obj 486 117 pm;
#X obj 136 386 processing;
#X obj 136 786 liveclock;
#X obj 136 586 control;
#X obj 136 336 env_triggers;
#X obj 306 586 main_output;
#X obj 283 47 storage;
#X obj 486 336 env_triggers;
#X obj 307 317 r load_key_config_1;
#X obj 657 317 r load_key_config_2;
#X text 133 91 FREQUENCY MODULATION;
#X text 483 91 PHASE MODULATION;
#X text 870 91 ENVELOPE PRESETS;
#X text 870 121 short envelopes;
#X obj 479 317 r load_env_config_1;
#X obj 829 317 r load_env_config_2;
#X msg 873 147 \; load_env_config_1 15 20 70 15 100 500 30 1000 \; load_env_config_2 20 15 30 15 20 200 300 15;
#X msg 873 237 \; load_env_config_1 30 900 700 50 500 700 1000 200 \; load_env_config_2 20 800 900 30 20 3000 3000 20;
#X text 870 211 long envelopes;
#X obj 656 386 osc_action;
#X connect 1 0 6 0;
#X connect 2 0 9 0;
#X connect 3 0 5 0;
#X connect 6 0 3 0;
#X connect 9 0 3 0;
#X connect 10 0 6 1;
#X connect 11 0 9 1;
#X connect 16 0 6 2;
#X connect 17 0 9 2;
