#N canvas 4 0 1920 997 12;
#X obj 40 234 *~;
#X obj 90 191 vline~;
#X msg 90 161 1 \$1 \, 0 \$2 \$1;
#X obj 90 215 *~;
#X obj 90 108 f, f 7;
#X obj 90 132 pack f f, f 13;
#X obj 40 60 inlet~;
#X obj 40 275 outlet~;
#X obj 90 60 inlet;
#X obj 136 60 inlet;
#X obj 178 60 inlet;
#X obj 90 84 bang;
#X connect 0 0 7 0;
#X connect 1 0 3 0;
#X connect 1 0 3 1;
#X connect 2 0 1 0;
#X connect 3 0 0 1;
#X connect 4 0 5 0;
#X connect 5 0 2 0;
#X connect 6 0 0 0;
#X connect 8 0 11 0;
#X connect 9 0 4 1;
#X connect 10 0 5 1;
#X connect 11 0 4 0;
#X coords 0 997 1 996 192 50 0;
