#N canvas 61 44 1863 997 12;
#X declare -path .;
#X obj 52 -65 declare -path .;
#X obj 51 450 ad, f 22;
#X obj 522 126 cnv 19 126 76 empty empty empty 20 12 0 12 #e0e0e0 #404040 0;
#X obj 52 111 bng 30 250 50 0 \$0-bang empty empty 0 -10 0 12 #c6ffc7 #000000 #000000;
#X floatatom 84 111 5 0 0 0 - - - 10;
#X obj 52 330 inlet~;
#X obj 51 514 outlet~;
#X obj 52 168 f, f 5;
#X obj 52 192 pack f f, f 9;
#X floatatom 84 126 5 0 0 0 - - - 10;
#X obj 122 111 bng 30 250 50 0 \$0-bang empty empty 0 -10 0 12 #c6ffc7 #000000 #000000;
#X floatatom 154 111 5 0 0 0 - - - 10;
#X obj 122 168 f, f 5;
#X obj 122 192 pack f f, f 9;
#X floatatom 154 126 5 0 0 0 - - - 10;
#X obj 192 111 bng 30 250 50 0 \$0-bang empty empty 0 -10 0 12 #c6ffc7 #000000 #000000;
#X floatatom 224 111 5 0 0 0 - - - 10;
#X obj 192 168 f, f 5;
#X obj 192 192 pack f f, f 9;
#X floatatom 224 126 5 0 0 0 - - - 10;
#X obj 262 111 bng 30 250 50 0 \$0-bang empty empty 0 -10 0 12 #c6ffc7 #000000 #000000;
#X floatatom 294 111 5 0 0 0 - - - 10;
#X obj 262 168 f, f 5;
#X obj 262 192 pack f f, f 9;
#X floatatom 294 126 5 0 0 0 - - - 10;
#X obj 52 236 unpack f f, f 13;
#X obj 140 260 s \$0-decay;
#X obj 52 260 s \$0-attack;
#X obj 202 420 r \$0-decay;
#X obj 151 390 r \$0-attack;
#X obj 101 360 r \$0-bang;
#X obj 52 -26 bng 19 250 50 0 empty empty empty 0 -10 0 12 #fcfcfc #000000 #000000;
#X obj 52 5 key_config_select;
#X connect 1 0 6 0;
#X connect 3 0 7 0;
#X connect 4 0 7 1;
#X connect 5 0 1 0;
#X connect 7 0 8 0;
#X connect 8 0 25 0;
#X connect 9 0 8 1;
#X connect 10 0 12 0;
#X connect 11 0 12 1;
#X connect 12 0 13 0;
#X connect 13 0 25 0;
#X connect 14 0 13 1;
#X connect 15 0 17 0;
#X connect 16 0 17 1;
#X connect 17 0 18 0;
#X connect 18 0 25 0;
#X connect 19 0 18 1;
#X connect 20 0 22 0;
#X connect 21 0 22 1;
#X connect 22 0 23 0;
#X connect 23 0 25 0;
#X connect 24 0 23 1;
#X connect 25 0 27 0;
#X connect 25 1 26 0;
#X connect 28 0 1 3;
#X connect 29 0 1 2;
#X connect 30 0 1 1;
#X connect 31 0 32 0;
#X connect 32 0 3 0;
#X connect 32 1 10 0;
#X connect 32 2 15 0;
#X connect 32 3 20 0;
#X coords 0 -1 1 1 300 50 2 40 100;
