#N canvas 0 0 1924 997 12;
#X declare -path .;
#X obj 52 -65 declare -path .;
#X obj 522 126 cnv 19 126 76 empty empty empty 20 12 0 12 #e0e0e0 #404040 0;
#X obj 52 111 bng 30 250 50 0 \$0-bang empty empty 0 -10 0 12 #c6ffc7 #000000 #000000;
#X floatatom 84 111 5 0 0 0 - - - 10;
#X obj 52 330 inlet~;
#X obj 51 484 outlet~;
#X obj 52 168 f, f 5;
#X obj 52 192 pack f f, f 9;
#X floatatom 84 126 5 0 0 0 - - - 10;
#X obj 122 111 bng 30 250 50 0 \$0-bang empty empty 0 -10 0 12 #c6ffc7 #000000 #000000;
#X floatatom 154 111 5 0 0 0 - - - 10;
#X obj 122 168 f, f 5;
#X obj 122 192 pack f f, f 9;
#X floatatom 154 126 5 0 0 0 - - - 10;
#X obj 192 111 bng 30 250 50 0 \$0-bang empty empty 0 -10 0 12 #c6ffc7 #000000 #000000;
#X floatatom 224 111 5 0 0 0 - - - 10;
#X obj 192 168 f, f 5;
#X obj 192 192 pack f f, f 9;
#X floatatom 224 126 5 0 0 0 - - - 10;
#X obj 262 111 bng 30 250 50 0 \$0-bang empty empty 0 -10 0 12 #c6ffc7 #000000 #000000;
#X floatatom 294 111 5 0 0 0 - - - 10;
#X obj 262 168 f, f 5;
#X obj 262 192 pack f f, f 9;
#X floatatom 294 126 5 0 0 0 - - - 10;
#X obj 153 390 r \$0-decay;
#X obj 102 360 r \$0-attack;
#X obj 52 -26 bng 19 250 50 0 empty empty empty 0 -10 0 12 #fcfcfc #000000 #000000;
#X obj 52 -1 key_config_route;
#X obj 52 216 s \$0-env0;
#X obj 122 216 s \$0-env1;
#X obj 192 216 s \$0-env2;
#X obj 262 216 s \$0-env3;
#X obj 122 -34 r \$0-env0;
#X obj 192 -34 r \$0-env1;
#X obj 262 -34 r \$0-env2;
#X obj 332 -34 r \$0-env3;
#X obj 332 168 s \$0-attack;
#X obj 402 138 s \$0-decay;
#X obj 51 420 adsr, f 15;
#X connect 2 0 6 0;
#X connect 3 0 6 1;
#X connect 4 0 38 0;
#X connect 6 0 7 0;
#X connect 7 0 28 0;
#X connect 8 0 7 1;
#X connect 9 0 11 0;
#X connect 10 0 11 1;
#X connect 11 0 12 0;
#X connect 12 0 29 0;
#X connect 13 0 12 1;
#X connect 14 0 16 0;
#X connect 15 0 16 1;
#X connect 16 0 17 0;
#X connect 17 0 30 0;
#X connect 18 0 17 1;
#X connect 19 0 21 0;
#X connect 20 0 21 1;
#X connect 21 0 22 0;
#X connect 22 0 31 0;
#X connect 23 0 22 1;
#X connect 24 0 38 2;
#X connect 25 0 38 1;
#X connect 26 0 27 0;
#X connect 27 0 2 0;
#X connect 27 1 9 0;
#X connect 27 2 14 0;
#X connect 27 3 19 0;
#X connect 27 4 36 0;
#X connect 27 5 37 0;
#X connect 32 0 27 1;
#X connect 33 0 27 2;
#X connect 34 0 27 3;
#X connect 35 0 27 4;
#X connect 38 0 5 0;
#X coords 0 -1 1 1 300 50 2 40 100;
