#N struct 1155-point float x0 float y0 float xs float ys float fg float in float gridx float gridy;
#N canvas 0 0 1920 997 12;
#X declare -path .;
#X obj 711 108 slider2d 150 150 -1 1 0 1 1 255 255 255 0 0 0 0 0 0 1 0.393333 empty empty;
#X obj 711 312 unpack f f, f 11;
#X obj 711 -41 loadbang;
#X obj 660 -137 cnv 19 126 76 empty empty empty 20 12 0 12 #e0e0e0 #404040 0;
#X obj 710 272 nbx 5 20 -1e+37 1e+37 0 0 empty \$0-panning panning 0 -7 1 12 #dfdfdf #000000 #000000 0 256;
#X obj 795 272 nbx 5 20 -1e+37 1e+37 0 0 empty \$0-volume volume 0 -7 1 12 #dfdfdf #000000 #000000 0 256;
#X msg 869 12 xrange -1 1;
#X msg 869 41 yrange 0 1;
#X obj 711 370 s \$0-panning;
#X obj 785 341 s \$0-volume;
#X obj 262 113 declare -path .;
#X obj 262 267 panning;
#X obj 262 234 *~;
#X obj 308 241 r \$0-panning;
#X obj 308 191 r \$0-volume;
#X obj 308 215 ramp~ 50;
#X obj 262 167 lop~ 10000;
#X obj 262 143 inlet~;
#X obj 262 326 throw~ signal_out_L;
#X obj 309 297 throw~ signal_out_R;
#X msg 790 12 set 0 0.8;
#X obj 711 -17 t b b b, f 23;
#X msg 869 72 size 150;
#X connect 0 0 1 0;
#X connect 1 0 8 0;
#X connect 1 1 9 0;
#X connect 2 0 21 0;
#X connect 6 0 0 0;
#X connect 7 0 0 0;
#X connect 11 0 18 0;
#X connect 11 1 19 0;
#X connect 12 0 11 0;
#X connect 13 0 11 1;
#X connect 14 0 15 0;
#X connect 15 0 12 1;
#X connect 16 0 12 0;
#X connect 17 0 16 0;
#X connect 20 0 0 0;
#X connect 21 0 0 0;
#X connect 21 1 20 0;
#X connect 21 2 6 0;
#X connect 21 2 7 0;
#X connect 21 2 22 0;
#X connect 22 0 0 0;
#X coords 0 -1 1 1 170 200 2 700 100;
