#N canvas 4 0 1920 997 12;
#X declare -path .;
#X obj 52 -289 declare -path .;
#X obj 522 126 cnv 19 126 76 empty empty empty 20 12 0 12 #e0e0e0 #404040 0;
#X obj 52 111 bng 30 250 50 0 \$0-bang empty empty 0 -10 0 12 #c6ffc7 #000000 #000000;
#X floatatom 84 111 5 0 0 0 - - - 10;
#X obj 52 168 f, f 5;
#X obj 52 192 pack f f, f 9;
#X floatatom 84 126 5 0 0 0 - - - 10;
#X obj 122 111 bng 30 250 50 0 \$0-bang empty empty 0 -10 0 12 #c6ffc7 #000000 #000000;
#X floatatom 154 111 5 0 0 0 - - - 10;
#X obj 122 168 f, f 5;
#X obj 122 192 pack f f, f 9;
#X floatatom 154 126 5 0 0 0 - - - 10;
#X obj 192 111 bng 30 250 50 0 \$0-bang empty empty 0 -10 0 12 #c6ffc7 #000000 #000000;
#X floatatom 224 111 5 0 0 0 - - - 10;
#X obj 192 168 f, f 5;
#X obj 192 192 pack f f, f 9;
#X floatatom 224 126 5 0 0 0 - - - 10;
#X obj 262 111 bng 30 250 50 0 \$0-bang empty empty 0 -10 0 12 #c6ffc7 #000000 #000000;
#X floatatom 294 111 5 0 0 0 - - - 10;
#X obj 262 168 f, f 5;
#X obj 262 192 pack f f, f 9;
#X floatatom 294 126 5 0 0 0 - - - 10;
#X obj 433 920 r \$0-decay;
#X obj 382 890 r \$0-attack;
#X obj 52 -215 key_config_route;
#X obj 52 296 s \$0-env0;
#X obj 122 296 s \$0-env1;
#X obj 192 296 s \$0-env2;
#X obj 262 296 s \$0-env3;
#X obj 122 -248 r \$0-env0;
#X obj 192 -248 r \$0-env1;
#X obj 262 -248 r \$0-env2;
#X obj 332 -248 r \$0-env3;
#X obj 388 -30 s \$0-attack;
#X obj 472 -30 s \$0-decay;
#X obj 331 950 adsr, f 15;
#X obj 51 950 ad, f 22;
#X obj 202 920 r \$0-decay;
#X obj 151 890 r \$0-attack;
#X obj 101 860 r \$0-bang;
#X obj 52 -248 r \$0-conf;
#X obj 31 111 bng 15 250 50 0 empty empty empty 0 -10 0 12 #7c7c7c #000000 #000000;
#X obj 31 332 s \$0-conf;
#X obj 332 111 tgl 15 0 empty empty empty 0 -10 0 12 #dfdfdf #000000 #000000 0 1;
#X obj 52 -30 s \$0-bng0;
#X obj 136 -30 s \$0-bng1;
#X obj 220 -30 s \$0-bng2;
#X obj 304 -30 s \$0-bng3;
#X obj 332 296 s \$0-toggle;
#X obj 388 -90 spigot;
#X obj 472 -90 spigot;
#X obj 511 -148 r \$0-toggle;
#X obj 52 20 r \$0-bng0;
#X obj 122 20 r \$0-bng1;
#X obj 192 20 r \$0-bng2;
#X obj 262 20 r \$0-bng3;
#X obj 52 248 spigot;
#X obj 122 246 spigot;
#X obj 192 246 spigot;
#X obj 262 246 spigot;
#X obj 332 192 r \$0-toggle;
#X obj 52 489 unpack f f, f 13;
#X obj 140 513 s \$0-decay;
#X obj 52 513 s \$0-attack;
#X obj 52 438 spigot;
#X obj 122 436 spigot;
#X obj 192 436 spigot;
#X obj 262 436 spigot;
#X obj 332 382 + 1;
#X obj 332 332 r \$0-toggle;
#X obj 332 356 * -1;
#X obj 332 764 *~, f 8;
#X obj 105 713 + 1;
#X obj 105 663 r \$0-toggle;
#X obj 105 687 * -1;
#X obj 52 764 *~, f 8;
#X obj 385 663 r \$0-toggle;
#X obj 52 563 inlet~;
#X obj 332 20 loadbang;
#X msg 332 74 0;
#X obj 52 594 s~ \$0-signal-in;
#X obj 52 634 r~ \$0-signal-in;
#X obj 332 634 r~ \$0-signal-in;
#X obj 51 1065 outlet~;
#X obj 51 994 throw~ \$0-signal-out;
#X obj 331 994 throw~ \$0-signal-out;
#X obj 51 1034 catch~ \$0-signal-out;
#X obj 31 126 tgl 15 0 empty empty empty 0 -10 0 12 #dfdfdf #000000 #000000 0 1;
#X obj 52 74 spigot;
#X obj 122 74 spigot;
#X obj 192 74 spigot;
#X obj 262 74 spigot;
#X obj -48 141 * -1;
#X obj -48 165 + 1;
#X obj -48 189 s \$0-lock;
#X obj 91 46 r \$0-lock;
#X obj 161 46 r \$0-lock;
#X obj 231 46 r \$0-lock;
#X obj 301 46 r \$0-lock;
#X obj -48 83 loadbang;
#X msg -48 107 0;
#X obj 332 146 t f b, f 13;
#X obj 420 192 s silence_env;
#X obj 105 740 ramp~ 30;
#X obj 385 740 ramp~ 30;
#X msg 420 168 30;
#X obj 101 890 spigot;
#X obj 140 836 + 1;
#X obj 140 786 r \$0-toggle;
#X obj 140 810 * -1;
#X obj 332 522 inlet;
#X obj 472 -248 r \$0-load_config;
#X obj 332 546 t l b, f 6;
#X obj 371 571 s \$0-conf;
#X obj 332 571 iter;
#X obj 332 595 s \$0-load_config;
#X obj 332 126 tgl 15 0 empty empty empty 0 -10 0 12 #ffc7c6 #000000 #000000 0 1;
#X obj 427 141 s \$0-disable;
#X obj 562 764 *~, f 8;
#X obj 562 634 r~ \$0-signal-in;
#X obj 615 740 ramp~ 30;
#X obj 562 994 throw~ \$0-signal-out;
#X obj 615 663 r \$0-disable;
#X obj 562 522 inlet;
#X connect 2 0 4 0;
#X connect 3 0 4 1;
#X connect 4 0 5 0;
#X connect 5 0 56 0;
#X connect 5 0 64 0;
#X connect 6 0 5 1;
#X connect 7 0 9 0;
#X connect 8 0 9 1;
#X connect 9 0 10 0;
#X connect 10 0 57 0;
#X connect 10 0 65 0;
#X connect 11 0 10 1;
#X connect 12 0 14 0;
#X connect 13 0 14 1;
#X connect 14 0 15 0;
#X connect 15 0 58 0;
#X connect 15 0 66 0;
#X connect 16 0 15 1;
#X connect 17 0 19 0;
#X connect 18 0 19 1;
#X connect 19 0 20 0;
#X connect 20 0 59 0;
#X connect 20 0 67 0;
#X connect 21 0 20 1;
#X connect 22 0 35 2;
#X connect 23 0 35 1;
#X connect 24 0 44 0;
#X connect 24 1 45 0;
#X connect 24 2 46 0;
#X connect 24 3 47 0;
#X connect 24 4 49 0;
#X connect 24 5 50 0;
#X connect 29 0 24 1;
#X connect 30 0 24 2;
#X connect 31 0 24 3;
#X connect 32 0 24 4;
#X connect 35 0 85 0;
#X connect 36 0 84 0;
#X connect 37 0 36 3;
#X connect 38 0 36 2;
#X connect 39 0 106 0;
#X connect 40 0 24 0;
#X connect 41 0 42 0;
#X connect 43 0 101 0;
#X connect 49 0 33 0;
#X connect 50 0 34 0;
#X connect 51 0 50 1;
#X connect 51 0 49 1;
#X connect 52 0 88 0;
#X connect 53 0 89 0;
#X connect 54 0 90 0;
#X connect 55 0 91 0;
#X connect 56 0 25 0;
#X connect 57 0 26 0;
#X connect 58 0 27 0;
#X connect 59 0 28 0;
#X connect 60 0 59 1;
#X connect 60 0 58 1;
#X connect 60 0 57 1;
#X connect 60 0 56 1;
#X connect 61 0 63 0;
#X connect 61 1 62 0;
#X connect 64 0 61 0;
#X connect 65 0 61 0;
#X connect 66 0 61 0;
#X connect 67 0 61 0;
#X connect 68 0 67 1;
#X connect 68 0 66 1;
#X connect 68 0 65 1;
#X connect 68 0 64 1;
#X connect 69 0 70 0;
#X connect 70 0 68 0;
#X connect 71 0 35 0;
#X connect 72 0 103 0;
#X connect 73 0 74 0;
#X connect 74 0 72 0;
#X connect 75 0 36 0;
#X connect 76 0 104 0;
#X connect 77 0 80 0;
#X connect 78 0 79 0;
#X connect 79 0 43 0;
#X connect 81 0 75 0;
#X connect 82 0 71 0;
#X connect 86 0 83 0;
#X connect 87 0 92 0;
#X connect 88 0 2 0;
#X connect 89 0 7 0;
#X connect 90 0 12 0;
#X connect 91 0 17 0;
#X connect 92 0 93 0;
#X connect 93 0 94 0;
#X connect 95 0 88 1;
#X connect 96 0 89 1;
#X connect 97 0 90 1;
#X connect 98 0 91 1;
#X connect 99 0 100 0;
#X connect 100 0 87 0;
#X connect 101 0 48 0;
#X connect 101 1 105 0;
#X connect 103 0 75 1;
#X connect 104 0 71 1;
#X connect 105 0 102 0;
#X connect 106 0 36 1;
#X connect 107 0 106 1;
#X connect 108 0 109 0;
#X connect 109 0 107 0;
#X connect 110 0 112 0;
#X connect 111 0 24 6;
#X connect 112 0 114 0;
#X connect 112 1 113 0;
#X connect 114 0 115 0;
#X connect 116 0 117 0;
#X connect 118 0 121 0;
#X connect 119 0 118 0;
#X connect 120 0 118 1;
#X connect 122 0 120 0;
#X coords 0 -1 1 1 330 50 2 25 100;
