#N canvas 4 0 1920 997 12;
#X declare -path .;
#X obj 52 -289 declare -path .;
#X obj 552 100 cnv 19 126 76 empty empty empty 20 12 0 12 #e0e0e0 #404040 0;
#X obj 62 111 bng 30 250 50 0 \$0-bang empty empty 0 -10 0 12 #c6ffc7 #000000 #000000;
#X floatatom 94 111 5 0 0 0 - \$0-env1_attack - 10;
#X obj 62 168 f, f 5;
#X obj 62 192 pack f f, f 9;
#X floatatom 94 126 5 0 0 0 - \$0-env1_decay - 10;
#X obj 132 111 bng 30 250 50 0 \$0-bang empty empty 0 -10 0 12 #c6ffc7 #000000 #000000;
#X floatatom 164 111 5 0 0 0 - \$0-env2_attack - 10;
#X obj 132 168 f, f 5;
#X obj 132 192 pack f f, f 9;
#X floatatom 164 126 5 0 0 0 - \$0-env2_decay - 10;
#X obj 202 111 bng 30 250 50 0 \$0-bang empty empty 0 -10 0 12 #c6ffc7 #000000 #000000;
#X floatatom 234 111 5 0 0 0 - \$0-env3_attack - 10;
#X obj 202 168 f, f 5;
#X obj 202 192 pack f f, f 9;
#X floatatom 234 126 5 0 0 0 - \$0-env3_decay - 10;
#X obj 272 111 bng 30 250 50 0 \$0-bang empty empty 0 -10 0 12 #c6ffc7 #000000 #000000;
#X floatatom 304 111 5 0 0 0 - \$0-env4_attack - 10;
#X obj 272 168 f, f 5;
#X obj 272 192 pack f f, f 9;
#X floatatom 304 126 5 0 0 0 - \$0-env4_decay - 10;
#X obj 433 920 r \$0-decay;
#X obj 382 890 r \$0-attack;
#X obj 62 296 s \$0-env0;
#X obj 132 296 s \$0-env1;
#X obj 202 296 s \$0-env2;
#X obj 272 296 s \$0-env3;
#X obj 122 -248 r \$0-env0;
#X obj 192 -248 r \$0-env1;
#X obj 262 -248 r \$0-env2;
#X obj 332 -248 r \$0-env3;
#X obj 388 -30 s \$0-attack;
#X obj 472 -30 s \$0-decay;
#X obj 202 920 r \$0-decay;
#X obj 151 890 r \$0-attack;
#X obj 101 860 r \$0-bang;
#X obj 52 -248 r \$0-conf;
#X obj 41 111 bng 15 250 50 0 empty empty config -15 -5 0 10 #7c7c7c #000000 #000000;
#X obj 41 332 s \$0-conf;
#X obj 342 111 tgl 15 0 empty empty hold 0 -5 0 10 #dfdfdf #000000 #000000 0 1;
#X obj 52 -30 s \$0-bng0;
#X obj 136 -30 s \$0-bng1;
#X obj 220 -30 s \$0-bng2;
#X obj 304 -30 s \$0-bng3;
#X obj 342 296 s \$0-toggle;
#X obj 388 -90 spigot;
#X obj 472 -90 spigot;
#X obj 511 -148 r \$0-toggle;
#X obj 62 20 r \$0-bng0;
#X obj 132 20 r \$0-bng1;
#X obj 202 20 r \$0-bng2;
#X obj 272 20 r \$0-bng3;
#X obj 62 248 spigot;
#X obj 132 246 spigot;
#X obj 202 246 spigot;
#X obj 272 246 spigot;
#X obj 342 192 r \$0-toggle;
#X obj 62 489 unpack f f, f 13;
#X obj 150 513 s \$0-decay;
#X obj 62 513 s \$0-attack;
#X obj 62 438 spigot;
#X obj 132 436 spigot;
#X obj 202 436 spigot;
#X obj 272 436 spigot;
#X obj 311 382 + 1;
#X obj 311 332 r \$0-toggle;
#X obj 311 356 * -1;
#X obj 332 764 *~, f 8;
#X obj 105 713 + 1;
#X obj 105 663 r \$0-toggle;
#X obj 105 687 * -1;
#X obj 52 764 *~, f 8;
#X obj 385 663 r \$0-toggle;
#X obj 52 563 inlet~;
#X obj 342 20 loadbang;
#X msg 342 74 0;
#X obj 52 594 s~ \$0-signal-in;
#X obj 52 634 r~ \$0-signal-in;
#X obj 332 634 r~ \$0-signal-in;
#X obj 51 1065 outlet~;
#X obj 51 994 throw~ \$0-signal-out;
#X obj 331 994 throw~ \$0-signal-out;
#X obj 51 1034 catch~ \$0-signal-out;
#X obj 41 126 tgl 15 0 empty empty block -14 18 0 10 #dfdfdf #000000 #000000 0 1;
#X obj 62 74 spigot;
#X obj 132 74 spigot;
#X obj 202 74 spigot;
#X obj 272 74 spigot;
#X obj -48 141 * -1;
#X obj -48 165 + 1;
#X obj -48 189 s \$0-lock;
#X obj 101 46 r \$0-lock;
#X obj 171 46 r \$0-lock;
#X obj 241 46 r \$0-lock;
#X obj 311 46 r \$0-lock;
#X obj -48 83 loadbang;
#X msg -48 107 0;
#X obj 342 146 t f b, f 13;
#X obj 105 740 ramp~ 30;
#X obj 385 740 ramp~ 30;
#X msg 430 168 30;
#X obj 101 890 spigot;
#X obj 140 836 + 1;
#X obj 140 786 r \$0-toggle;
#X obj 140 810 * -1;
#X obj 472 -248 r \$0-load_config;
#X obj 332 546 t l b, f 6;
#X obj 371 571 s \$0-conf;
#X obj 332 571 iter;
#X obj 332 595 s \$0-load_config;
#X obj 342 126 tgl 15 0 empty empty open 0 18 0 10 #ffc7c6 #000000 #000000 0 1;
#X obj 437 141 s \$0-disable;
#X obj 562 764 *~, f 8;
#X obj 562 634 r~ \$0-signal-in;
#X obj 615 740 ramp~ 30;
#X obj 562 994 throw~ \$0-signal-out;
#X obj 615 663 r \$0-disable;
#X obj 706 50 loadbang;
#X obj 706 75 \$0;
#X text 703 21 DEFAULT SETTINGS;
#X msg 706 100 \; \$1-env1_attack 15 \; \$1-env1_decay 200 \; \$1-env2_attack 200 \; \$1-env2_decay 20 \; \$1-env3_attack 400 \; \$1-env3_decay 500 \; \$1-env4_attack 1000 \; \$1-env4_decay 15;
#X obj 706 387 pack f f f f f f f f \$0;
#X msg 706 410 \; \$9-env1_attack \$1 \; \$9-env1_decay \$2 \; \$9-env2_attack \$3 \; \$9-env2_decay \$4 \; \$9-env3_attack \$5 \; \$9-env3_decay \$6 \; \$9-env4_attack \$7 \; \$9-env4_decay \$8;
#X obj 52 -215 key_config_route \$1;
#X obj 331 950 adsr \$1, f 15;
#X obj 51 950 ad \$1, f 22;
#X obj 430 192 s silence_env_\$1;
#X obj 706 365 r load_env_config_\$1;
#X obj 332 522 r load_key_config_\$1;
#X connect 2 0 4 0;
#X connect 3 0 4 1;
#X connect 4 0 5 0;
#X connect 5 0 53 0;
#X connect 5 0 61 0;
#X connect 6 0 5 1;
#X connect 7 0 9 0;
#X connect 8 0 9 1;
#X connect 9 0 10 0;
#X connect 10 0 54 0;
#X connect 10 0 62 0;
#X connect 11 0 10 1;
#X connect 12 0 14 0;
#X connect 13 0 14 1;
#X connect 14 0 15 0;
#X connect 15 0 55 0;
#X connect 15 0 63 0;
#X connect 16 0 15 1;
#X connect 17 0 19 0;
#X connect 18 0 19 1;
#X connect 19 0 20 0;
#X connect 20 0 56 0;
#X connect 20 0 64 0;
#X connect 21 0 20 1;
#X connect 22 0 125 2;
#X connect 23 0 125 1;
#X connect 28 0 124 1;
#X connect 29 0 124 2;
#X connect 30 0 124 3;
#X connect 31 0 124 4;
#X connect 34 0 126 3;
#X connect 35 0 126 2;
#X connect 36 0 102 0;
#X connect 37 0 124 0;
#X connect 38 0 39 0;
#X connect 40 0 98 0;
#X connect 46 0 32 0;
#X connect 47 0 33 0;
#X connect 48 0 47 1;
#X connect 48 0 46 1;
#X connect 49 0 85 0;
#X connect 50 0 86 0;
#X connect 51 0 87 0;
#X connect 52 0 88 0;
#X connect 53 0 24 0;
#X connect 54 0 25 0;
#X connect 55 0 26 0;
#X connect 56 0 27 0;
#X connect 57 0 56 1;
#X connect 57 0 55 1;
#X connect 57 0 54 1;
#X connect 57 0 53 1;
#X connect 58 0 60 0;
#X connect 58 1 59 0;
#X connect 61 0 58 0;
#X connect 62 0 58 0;
#X connect 63 0 58 0;
#X connect 64 0 58 0;
#X connect 65 0 64 1;
#X connect 65 0 63 1;
#X connect 65 0 62 1;
#X connect 65 0 61 1;
#X connect 66 0 67 0;
#X connect 67 0 65 0;
#X connect 68 0 125 0;
#X connect 69 0 99 0;
#X connect 70 0 71 0;
#X connect 71 0 69 0;
#X connect 72 0 126 0;
#X connect 73 0 100 0;
#X connect 74 0 77 0;
#X connect 75 0 76 0;
#X connect 76 0 40 0;
#X connect 78 0 72 0;
#X connect 79 0 68 0;
#X connect 83 0 80 0;
#X connect 84 0 89 0;
#X connect 85 0 2 0;
#X connect 86 0 7 0;
#X connect 87 0 12 0;
#X connect 88 0 17 0;
#X connect 89 0 90 0;
#X connect 90 0 91 0;
#X connect 92 0 85 1;
#X connect 93 0 86 1;
#X connect 94 0 87 1;
#X connect 95 0 88 1;
#X connect 96 0 97 0;
#X connect 97 0 84 0;
#X connect 98 0 45 0;
#X connect 98 1 101 0;
#X connect 99 0 72 1;
#X connect 100 0 68 1;
#X connect 101 0 127 0;
#X connect 102 0 126 1;
#X connect 103 0 102 1;
#X connect 104 0 105 0;
#X connect 105 0 103 0;
#X connect 106 0 124 6;
#X connect 107 0 109 0;
#X connect 107 1 108 0;
#X connect 109 0 110 0;
#X connect 111 0 112 0;
#X connect 113 0 116 0;
#X connect 114 0 113 0;
#X connect 115 0 113 1;
#X connect 117 0 115 0;
#X connect 118 0 119 0;
#X connect 119 0 121 0;
#X connect 122 0 123 0;
#X connect 124 0 41 0;
#X connect 124 1 42 0;
#X connect 124 2 43 0;
#X connect 124 3 44 0;
#X connect 124 4 46 0;
#X connect 124 5 47 0;
#X connect 125 0 82 0;
#X connect 126 0 81 0;
#X connect 128 0 122 0;
#X connect 129 0 107 0;
#X coords 0 -1 1 1 350 50 2 25 100;
