#N struct 1005-point float x0 float y0 float xs float ys float fg float in float gridx float gridy;
#N struct 1018-point float x0 float y0 float xs float ys float fg float in float gridx float gridy;
#N canvas 4 44 1920 997 12;
#X declare -path .;
#X obj 494 212 osc~;
#X obj 349 183 *~;
#X obj 778 143 slider2d 200 200 0 1000 0 1000 1 255 255 255 0 0 0 0 0 0 468 167.5 empty empty;
#X obj 778 425 unpack f f, f 11;
#X floatatom 778 449 5 0 0 0 - - - 0;
#X floatatom 852 449 5 0 0 0 - - - 0;
#X obj 494 183 *~;
#X obj 1019 143 slider2d 200 200 0 1000 0 1000 1 255 255 255 0 0 0 0 0 0 365 385 empty empty;
#X obj 1019 425 unpack f f, f 11;
#X floatatom 1019 449 5 0 0 0 - - - 0;
#X floatatom 1093 449 5 0 0 0 - - - 0;
#X obj 349 212 osc~;
#X obj 778 52 loadbang;
#X obj 1019 52 loadbang;
#X obj 494 159 osc~;
#X obj 349 250 *~, f 21;
#X obj 349 113 r \$0-mod1;
#X obj 412 140 r \$0-mod2;
#X obj 494 113 r \$0-mod3;
#X obj 551 140 r \$0-mod4;
#X obj 778 472 s \$0-mod1;
#X obj 852 472 s \$0-mod2;
#X obj 1019 472 s \$0-mod3;
#X obj 1093 472 s \$0-mod4;
#X obj 700 -43 cnv 19 126 76 empty empty empty 20 12 0 12 #e0e0e0 #404040 0;
#X msg 778 105 size 200;
#X msg 1019 105 size 200;
#X obj 777 359 nbx 6 20 -1e+37 1e+37 0 0 empty \$0-mod1 empty 0 -10 1 14 #dfdfdf #000000 #000000 0 256;
#X obj 901 359 nbx 6 20 -1e+37 1e+37 0 0 empty \$0-mod2 empty 0 -10 1 14 #dfdfdf #000000 #000000 0 256;
#X obj 1018 359 nbx 6 20 -1e+37 1e+37 0 0 empty \$0-mod3 empty 0 -10 1 14 #dfdfdf #000000 #000000 0 256;
#X obj 1142 359 nbx 6 20 -1e+37 1e+37 0 0 empty \$0-mod4 empty 0 -10 1 14 #dfdfdf #000000 #000000 0 256;
#X obj 349 83 declare -path .;
#X msg 778 75 range 0 1000;
#X msg 1019 75 range 0 1000;
#X obj 551 164 ramp 50;
#X obj 412 164 ramp 50;
#X obj 349 290 outlet~;
#X obj 349 159 osc~;
#X connect 0 0 15 1;
#X connect 1 0 11 0;
#X connect 2 0 3 0;
#X connect 3 0 4 0;
#X connect 3 1 5 0;
#X connect 4 0 20 0;
#X connect 5 0 21 0;
#X connect 6 0 0 0;
#X connect 7 0 8 0;
#X connect 8 0 9 0;
#X connect 8 1 10 0;
#X connect 9 0 22 0;
#X connect 10 0 23 0;
#X connect 11 0 15 0;
#X connect 12 0 32 0;
#X connect 13 0 33 0;
#X connect 13 0 26 0;
#X connect 14 0 6 0;
#X connect 15 0 36 0;
#X connect 16 0 37 0;
#X connect 17 0 35 0;
#X connect 18 0 14 0;
#X connect 19 0 34 0;
#X connect 25 0 2 0;
#X connect 26 0 7 0;
#X connect 32 0 2 0;
#X connect 33 0 7 0;
#X connect 34 0 6 1;
#X connect 35 0 1 1;
#X connect 37 0 1 0;
#X coords 0 -1 1 1 600 300 1 700 100;
