#N struct 1005-point float x0 float y0 float xs float ys float fg float in float gridx float gridy;
#N struct 1018-point float x0 float y0 float xs float ys float fg float in float gridx float gridy;
#N canvas 4 0 1920 997 12;
#X declare -path .;
#X obj 494 212 osc~;
#X obj 349 183 *~;
#X obj 717 113 slider2d 150 150 0 1000 0 1000 1 255 255 255 0 0 0 0 0 0 0 0 empty empty;
#X obj 717 395 unpack f f, f 11;
#X floatatom 717 419 5 0 0 0 - - - 0;
#X floatatom 791 419 5 0 0 0 - - - 0;
#X obj 494 183 *~;
#X obj 887 113 slider2d 150 150 0 1000 0 1000 1 255 255 255 0 0 0 0 0 0 0 0 empty empty;
#X obj 887 395 unpack f f, f 11;
#X floatatom 887 419 5 0 0 0 - - - 0;
#X floatatom 961 419 5 0 0 0 - - - 0;
#X obj 349 212 osc~;
#X obj 717 22 loadbang;
#X obj 887 22 loadbang;
#X obj 349 250 *~, f 21;
#X obj 349 113 r \$0-mod1;
#X obj 412 140 r \$0-mod2;
#X obj 494 113 r \$0-mod3;
#X obj 551 140 r \$0-mod4;
#X obj 717 442 s \$0-mod1;
#X obj 791 442 s \$0-mod2;
#X obj 887 442 s \$0-mod3;
#X obj 961 442 s \$0-mod4;
#X obj 700 -83 cnv 19 126 76 empty empty empty 20 12 0 12 #e0e0e0 #404040 0;
#X obj 716 273 nbx 5 20 -1e+37 1e+37 0 0 empty \$0-mod1 empty 0 -10 1 14 #dfdfdf #000000 #000000 0 256;
#X obj 801 273 nbx 5 20 -1e+37 1e+37 0 0 empty \$0-mod2 empty 0 -10 1 14 #dfdfdf #000000 #000000 0 256;
#X obj 886 273 nbx 5 20 -1e+37 1e+37 0 0 empty \$0-mod3 empty 0 -10 1 14 #dfdfdf #000000 #000000 0 256;
#X obj 971 273 nbx 5 20 -1e+37 1e+37 0 0 empty \$0-mod4 empty 0 -10 1 14 #dfdfdf #000000 #000000 0 256;
#X obj 349 83 declare -path .;
#X msg 717 45 range 0 1000;
#X msg 887 45 range 0 1000;
#X obj 551 164 ramp 50;
#X obj 412 164 ramp 50;
#X obj 349 290 outlet~;
#X obj 494 159 osc~;
#X obj 349 159 osc~;
#X msg 717 75 size 150;
#X msg 887 75 size 150;
#X connect 0 0 14 1;
#X connect 1 0 11 0;
#X connect 2 0 3 0;
#X connect 3 0 4 0;
#X connect 3 1 5 0;
#X connect 4 0 19 0;
#X connect 5 0 20 0;
#X connect 6 0 0 0;
#X connect 7 0 8 0;
#X connect 8 0 9 0;
#X connect 8 1 10 0;
#X connect 9 0 21 0;
#X connect 10 0 22 0;
#X connect 11 0 14 0;
#X connect 12 0 29 0;
#X connect 13 0 30 0;
#X connect 13 0 37 0;
#X connect 14 0 33 0;
#X connect 15 0 35 0;
#X connect 16 0 32 0;
#X connect 17 0 34 0;
#X connect 18 0 31 0;
#X connect 29 0 2 0;
#X connect 30 0 7 0;
#X connect 31 0 6 1;
#X connect 32 0 1 1;
#X connect 34 0 6 0;
#X connect 35 0 1 0;
#X connect 36 0 2 0;
#X connect 37 0 7 0;
#X coords 0 -1 1 1 350 200 2 700 100;
