#N canvas 346 254 1920 997 12;
#X obj 10 111 f;
#X obj 50 111 + 1;
#X obj 10 60 route key_config;
#X obj 10 34 list trim;
#X obj 10 85 t b f, f 26;
#X obj 10 159 + 1;
#X floatatom 10 183 5 0 0 0 - - - 0;
#X obj 10 135 % 4;
#X obj 10 10 r key_config_\$1;
#X obj 10 309 loadbang;
#X obj 10 359 s load_key_config_\$1;
#X obj 10 335 array get key_config_storage_\$1 1 4;
#X msg 10 251 \; key_config_storage_\$3 \$1 \$2;
#X obj 10 225 pack f f \$1, f 26;
#X connect 0 0 1 0;
#X connect 0 0 7 0;
#X connect 1 0 0 1;
#X connect 2 0 4 0;
#X connect 3 0 2 0;
#X connect 4 0 0 0;
#X connect 4 1 13 1;
#X connect 5 0 6 0;
#X connect 6 0 13 0;
#X connect 7 0 5 0;
#X connect 8 0 3 0;
#X connect 9 0 11 0;
#X connect 11 0 10 0;
#X connect 13 0 12 0;
