#N canvas 4 0 1920 997 12;
#X floatatom 72 483 5 0 0 0 - - - 0;
#X obj 111 571 f;
#X obj 141 571 + 1;
#X floatatom 111 617 5 0 0 0 - - - 0;
#X obj 72 416 key;
#X obj 72 693 send, f 6;
#X obj 72 440 spigot;
#X msg 111 397 -1;
#X obj 111 375 sel 0;
#X obj 111 356 tgl 15 0 empty empty empty 17 7 0 10 #fcfcfc #000000 #000000 0 1;
#X msg 218 337 0;
#X obj 111 296 inlet;
#X msg 111 320 1;
#X obj 1302 1065 s \$0-key-a.close;
#X obj 218 312 r \$0-key-a.close;
#X obj 484 98 cnv 15 100 60 empty empty empty 20 12 0 14 #e0e0e0 #404040 0;
#X floatatom 213 146 5 0 0 0 - - - 0;
#X floatatom 162 146 5 0 0 0 - - - 0;
#X floatatom 111 146 5 0 0 0 - - - 0;
#X floatatom 263 146 5 0 0 0 - - - 0;
#X obj 111 166 bng 15 250 50 0 empty empty a0 1 8 1 12 #0c0c0c #fcfcfc #fcfcfc;
#X obj 162 166 bng 15 250 50 0 empty empty a1 1 8 1 12 #000000 #fcfcfc #fcfcfc;
#X obj 213 166 bng 15 250 50 0 empty empty a2 1 8 1 12 #000000 #fcfcfc #fcfcfc;
#X obj 263 166 bng 15 250 50 0 empty empty a3 1 8 1 12 #000000 #fcfcfc #fcfcfc;
#X obj 111 122 r \$0-key-a0;
#X obj 162 122 r \$0-key-a1;
#X obj 213 122 r \$0-key-a2;
#X obj 263 122 r \$0-key-a3;
#X obj 111 29 * -1;
#X obj 111 77 tgl 15 0 empty empty empty 17 7 0 10 #fcfcfc #000000 #000000 0 1;
#X obj 111 53 + 1;
#X obj 224 219 spigot;
#X obj 224 246 spigot;
#X obj 224 193 key;
#X obj 263 186 tgl 15 0 empty empty empty 17 7 0 10 #fcfcfc #000000 #000000 0 1;
#X obj 224 270 s \$0-key-a3;
#X obj 174 219 spigot;
#X obj 174 246 spigot;
#X obj 174 193 key;
#X obj 213 186 tgl 15 0 empty empty empty 17 7 0 10 #fcfcfc #000000 #000000 0 1;
#X obj 174 270 s \$0-key-a2;
#X obj 123 219 spigot;
#X obj 123 246 spigot;
#X obj 123 193 key;
#X obj 162 186 tgl 15 0 empty empty empty 17 7 0 10 #fcfcfc #000000 #000000 0 1;
#X obj 123 270 s \$0-key-a1;
#X obj 72 219 spigot;
#X obj 72 246 spigot;
#X obj 72 193 key;
#X obj 111 186 tgl 15 0 empty empty empty 17 7 0 10 #fcfcfc #000000 #000000 0 1;
#X obj 72 270 s \$0-key-a0;
#X obj 334 23 r \$0-key-a.close;
#X msg 334 73 0;
#X obj 1302 1095 loadbang;
#X obj 1302 1119 s \$0-key-a.tgl;
#X obj 45 313 loadbang;
#X msg 45 337 0;
#X obj 334 107 bng 30 250 50 0 empty empty RESET -1 15 1 9 #fc8000 #fcfcfc #fcfcfc;
#X msg 357 164 0;
#X obj 334 135 t b b b;
#X obj 26 459 moses 1;
#X text 110 108 TECLADO - a (minús.);
#X obj 334 47 del 2;
#X obj 111 595 % 4;
#X obj 1302 1013 r \$0-key-a3;
#X obj 111 642 pack f \$0;
#X msg 111 667 symbol \$2-key-a\$1;
#X floatatom 223 1150 5 0 0 0 - - - 0;
#X floatatom 290 1037 5 0 0 0 - - - 0;
#X floatatom 223 1037 5 0 0 0 - - - 0;
#X floatatom 72 1037 5 0 0 0 - - - 0;
#X floatatom 139 1037 5 0 0 0 - - - 0;
#X obj 223 1065 pack f f, f 10;
#X obj 72 1065 pack f f, f 10;
#X floatatom 72 1150 5 0 0 0 - - - 0;
#X obj 72 1255 s \$0-attack;
#X obj 223 1255 s \$0-decay;
#X floatatom 524 1150 5 0 0 0 - - - 0;
#X floatatom 591 1037 5 0 0 0 - - - 0;
#X floatatom 524 1037 5 0 0 0 - - - 0;
#X floatatom 373 1037 5 0 0 0 - - - 0;
#X floatatom 440 1037 5 0 0 0 - - - 0;
#X obj 524 1065 pack f f, f 10;
#X obj 373 1065 pack f f, f 10;
#X floatatom 373 1150 5 0 0 0 - - - 0;
#X floatatom 825 1150 5 0 0 0 - - - 0;
#X floatatom 892 1037 5 0 0 0 - - - 0;
#X floatatom 825 1037 5 0 0 0 - - - 0;
#X floatatom 674 1037 5 0 0 0 - - - 0;
#X floatatom 741 1037 5 0 0 0 - - - 0;
#X obj 825 1065 pack f f, f 10;
#X obj 674 1065 pack f f, f 10;
#X floatatom 674 1150 5 0 0 0 - - - 0;
#X floatatom 1126 1150 5 0 0 0 - - - 0;
#X floatatom 1193 1037 5 0 0 0 - - - 0;
#X floatatom 1126 1037 5 0 0 0 - - - 0;
#X floatatom 975 1037 5 0 0 0 - - - 0;
#X floatatom 1042 1037 5 0 0 0 - - - 0;
#X obj 1126 1065 pack f f, f 10;
#X obj 975 1065 pack f f, f 10;
#X floatatom 975 1150 5 0 0 0 - - - 0;
#X obj 1302 1158 r \$0-attack;
#X obj 1422 1158 r \$0-decay;
#X obj 1302 1182 outlet;
#X obj 1422 1182 outlet;
#X obj 132 1095 r \$0-key-a0;
#X obj 72 1125 route, f 9;
#X obj 283 1095 r \$0-key-a0;
#X obj 223 1125 route, f 9;
#X obj 524 1125 route, f 9;
#X obj 373 1125 route, f 9;
#X obj 433 1095 r \$0-key-a1;
#X obj 584 1095 r \$0-key-a1;
#X obj 734 1095 r \$0-key-a2;
#X obj 885 1095 r \$0-key-a2;
#X obj 1035 1095 r \$0-key-a3;
#X obj 1186 1095 r \$0-key-a3;
#X obj 674 1125 route, f 9;
#X obj 825 1125 route, f 9;
#X obj 975 1125 route, f 9;
#X obj 1126 1125 route, f 9;
#X obj 72 1178 spigot, f 9;
#X obj 223 1178 spigot, f 9;
#X obj 373 1178 spigot, f 9;
#X obj 524 1178 spigot, f 9;
#X obj 674 1178 spigot, f 9;
#X obj 825 1178 spigot, f 9;
#X obj 975 1178 spigot, f 9;
#X obj 1126 1178 spigot, f 9;
#X obj 1302 934 tgl 15 0 empty empty empty 17 7 0 10 #fcfcfc #000000 #000000 0 1;
#X obj 1186 891 loadbang;
#X msg 1186 915 1;
#X obj 1302 891 inlet;
#X obj 1302 954 s \$0-lock;
#X obj 132 1150 r \$0-lock;
#X obj 283 1150 r \$0-lock;
#X obj 433 1150 r \$0-lock;
#X obj 584 1150 r \$0-lock;
#X obj 734 1150 r \$0-lock;
#X obj 885 1150 r \$0-lock;
#X obj 1035 1150 r \$0-lock;
#X obj 1186 1150 r \$0-lock;
#X obj 1302 1037 bang;
#X obj 139 953 inlet;
#X obj 139 977 unpack f f, f 22;
#X obj 440 953 inlet;
#X obj 440 977 unpack f f, f 22;
#X obj 741 953 inlet;
#X obj 741 977 unpack f f, f 22;
#X obj 1042 953 inlet;
#X obj 1042 977 unpack f f, f 22;
#X obj 72 1013 r \$0-keydown;
#X obj 223 1013 r \$0-keyup;
#X obj 373 1013 r \$0-keydown;
#X obj 524 1013 r \$0-keyup;
#X obj 674 1013 r \$0-keydown;
#X obj 825 1013 r \$0-keyup;
#X obj 975 1013 r \$0-keydown;
#X obj 1126 1013 r \$0-keyup;
#X obj 72 893 s \$0-keydown;
#X obj 223 893 s \$0-keyup;
#X obj 72 864 key;
#X obj 223 864 keyup;
#X obj 104 1221 outlet;
#X obj 373 1255 s \$0-attack;
#X obj 524 1255 s \$0-decay;
#X obj 405 1221 outlet;
#X obj 674 1255 s \$0-attack;
#X obj 825 1255 s \$0-decay;
#X obj 706 1221 outlet;
#X obj 975 1255 s \$0-attack;
#X obj 1126 1255 s \$0-decay;
#X obj 1007 1221 outlet;
#X obj 72 1202 t f b;
#X obj 223 1202 t f b;
#X obj 373 1202 t f b;
#X obj 524 1202 t f b;
#X obj 674 1202 t f b;
#X obj 825 1202 t f b;
#X obj 975 1202 t f b;
#X obj 1126 1202 t f b;
#X obj 174 761 pack symbol f, f 16;
#X msg 174 737 symbol key_config-\$1;
#X obj 174 785 s key_config_storage;
#X obj 111 718 moses 0, f 8;
#X obj 111 546 t b f, f 25;
#X obj 72 506 t f f, f 6;
#X obj 12 138 loadbang;
#X msg 12 167 0;
#X obj 1381 891 inlet;
#X obj 1381 954 s \$0-load_config;
#X connect 0 0 186 0;
#X connect 1 0 2 0;
#X connect 1 0 63 0;
#X connect 2 0 1 1;
#X connect 3 0 65 0;
#X connect 3 0 184 0;
#X connect 4 0 6 0;
#X connect 6 0 60 0;
#X connect 7 0 1 0;
#X connect 8 0 7 0;
#X connect 9 0 6 1;
#X connect 9 0 8 0;
#X connect 9 0 28 0;
#X connect 10 0 9 0;
#X connect 11 0 12 0;
#X connect 12 0 9 0;
#X connect 14 0 10 0;
#X connect 16 0 22 0;
#X connect 17 0 21 0;
#X connect 18 0 20 0;
#X connect 19 0 23 0;
#X connect 20 0 49 0;
#X connect 21 0 44 0;
#X connect 22 0 39 0;
#X connect 23 0 34 0;
#X connect 24 0 18 0;
#X connect 25 0 17 0;
#X connect 26 0 16 0;
#X connect 27 0 19 0;
#X connect 28 0 30 0;
#X connect 29 0 31 1;
#X connect 29 0 36 1;
#X connect 29 0 41 1;
#X connect 29 0 46 1;
#X connect 30 0 29 0;
#X connect 31 0 32 0;
#X connect 32 0 35 0;
#X connect 33 0 31 0;
#X connect 34 0 32 1;
#X connect 36 0 37 0;
#X connect 37 0 40 0;
#X connect 38 0 36 0;
#X connect 39 0 37 1;
#X connect 41 0 42 0;
#X connect 42 0 45 0;
#X connect 43 0 41 0;
#X connect 44 0 42 1;
#X connect 46 0 47 0;
#X connect 47 0 50 0;
#X connect 48 0 46 0;
#X connect 49 0 47 1;
#X connect 51 0 62 0;
#X connect 52 0 34 0;
#X connect 52 0 39 0;
#X connect 52 0 44 0;
#X connect 52 0 49 0;
#X connect 53 0 54 0;
#X connect 55 0 56 0;
#X connect 56 0 9 0;
#X connect 57 0 59 0;
#X connect 58 0 35 0;
#X connect 58 0 40 0;
#X connect 58 0 45 0;
#X connect 58 0 50 0;
#X connect 59 0 52 0;
#X connect 59 1 58 0;
#X connect 59 2 12 0;
#X connect 60 1 0 0;
#X connect 62 0 52 0;
#X connect 63 0 3 0;
#X connect 64 0 142 0;
#X connect 65 0 66 0;
#X connect 66 0 5 1;
#X connect 67 0 122 0;
#X connect 68 0 72 1;
#X connect 69 0 72 0;
#X connect 70 0 73 0;
#X connect 71 0 73 1;
#X connect 72 0 108 0;
#X connect 73 0 106 0;
#X connect 74 0 121 0;
#X connect 77 0 124 0;
#X connect 78 0 82 1;
#X connect 79 0 82 0;
#X connect 80 0 83 0;
#X connect 81 0 83 1;
#X connect 82 0 109 0;
#X connect 83 0 110 0;
#X connect 84 0 123 0;
#X connect 85 0 126 0;
#X connect 86 0 90 1;
#X connect 87 0 90 0;
#X connect 88 0 91 0;
#X connect 89 0 91 1;
#X connect 90 0 118 0;
#X connect 91 0 117 0;
#X connect 92 0 125 0;
#X connect 93 0 128 0;
#X connect 94 0 98 1;
#X connect 95 0 98 0;
#X connect 96 0 99 0;
#X connect 97 0 99 1;
#X connect 98 0 120 0;
#X connect 99 0 119 0;
#X connect 100 0 127 0;
#X connect 101 0 103 0;
#X connect 102 0 104 0;
#X connect 105 0 106 1;
#X connect 106 0 74 0;
#X connect 107 0 108 1;
#X connect 108 0 67 0;
#X connect 109 0 77 0;
#X connect 110 0 84 0;
#X connect 111 0 110 1;
#X connect 112 0 109 1;
#X connect 113 0 117 1;
#X connect 114 0 118 1;
#X connect 115 0 119 1;
#X connect 116 0 120 1;
#X connect 117 0 92 0;
#X connect 118 0 85 0;
#X connect 119 0 100 0;
#X connect 120 0 93 0;
#X connect 121 0 173 0;
#X connect 122 0 174 0;
#X connect 123 0 175 0;
#X connect 124 0 176 0;
#X connect 125 0 177 0;
#X connect 126 0 178 0;
#X connect 127 0 179 0;
#X connect 128 0 180 0;
#X connect 129 0 133 0;
#X connect 130 0 131 0;
#X connect 131 0 129 0;
#X connect 132 0 129 0;
#X connect 134 0 121 1;
#X connect 135 0 122 1;
#X connect 136 0 123 1;
#X connect 137 0 124 1;
#X connect 138 0 125 1;
#X connect 139 0 126 1;
#X connect 140 0 127 1;
#X connect 141 0 128 1;
#X connect 142 0 13 0;
#X connect 143 0 144 0;
#X connect 144 0 71 0;
#X connect 144 1 68 0;
#X connect 145 0 146 0;
#X connect 146 0 81 0;
#X connect 146 1 78 0;
#X connect 147 0 148 0;
#X connect 148 0 89 0;
#X connect 148 1 86 0;
#X connect 149 0 150 0;
#X connect 150 0 97 0;
#X connect 150 1 94 0;
#X connect 151 0 70 0;
#X connect 152 0 69 0;
#X connect 153 0 80 0;
#X connect 154 0 79 0;
#X connect 155 0 88 0;
#X connect 156 0 87 0;
#X connect 157 0 96 0;
#X connect 158 0 95 0;
#X connect 161 0 159 0;
#X connect 162 0 160 0;
#X connect 173 0 75 0;
#X connect 173 1 163 0;
#X connect 174 0 76 0;
#X connect 174 1 163 0;
#X connect 175 0 164 0;
#X connect 175 1 166 0;
#X connect 176 0 165 0;
#X connect 176 1 166 0;
#X connect 177 0 167 0;
#X connect 177 1 169 0;
#X connect 178 0 168 0;
#X connect 178 1 169 0;
#X connect 179 0 170 0;
#X connect 179 1 172 0;
#X connect 180 0 171 0;
#X connect 180 1 172 0;
#X connect 181 0 183 0;
#X connect 182 0 181 0;
#X connect 184 1 182 0;
#X connect 185 0 1 0;
#X connect 185 1 181 1;
#X connect 186 0 5 0;
#X connect 186 1 185 0;
#X connect 187 0 188 0;
#X connect 188 0 49 0;
#X connect 188 0 44 0;
#X connect 188 0 39 0;
#X connect 188 0 34 0;
#X connect 189 0 190 0;
#X coords 0 -1 1 1 357 86 2 100 100;
