#N canvas 4 0 1920 997 12;
#X obj 118 911 outlet;
#X obj 173 911 outlet;
#X obj 228 911 outlet;
#X obj 284 911 outlet;
#X floatatom 72 483 5 0 0 0 - - - 0;
#X obj 111 501 bng 15 250 50 0 empty empty empty 17 7 0 10 #fcfcfc #000000 #000000;
#X obj 111 521 f;
#X obj 141 521 + 1;
#X floatatom 111 567 5 0 0 0 - - - 0;
#X obj 72 416 key;
#X obj 72 643 send, f 6;
#X obj 72 440 spigot;
#X obj 72 711 key;
#X floatatom 118 785 5 0 0 0 - - - 0;
#X obj 118 855 sel, f 6;
#X obj 173 855 sel, f 6;
#X obj 228 855 sel, f 6;
#X obj 72 735 spigot;
#X obj 111 715 tgl 15 0 empty empty empty 17 7 0 10 #fcfcfc #000000 #000000 0 1;
#X obj 111 665 * -1;
#X obj 111 689 + 1;
#X msg 111 397 -1;
#X obj 111 375 sel 0;
#X obj 284 855 sel, f 6;
#X obj 118 879 spigot;
#X obj 173 879 spigot;
#X obj 228 879 spigot;
#X obj 284 879 spigot;
#X obj 405 787 tgl 15 0 empty empty empty 17 7 0 10 #fcfcfc #000000 #000000 0 1;
#X obj 289 744 loadbang;
#X msg 289 768 1;
#X obj 405 744 inlet;
#X obj 111 356 tgl 15 0 empty empty empty 17 7 0 10 #fcfcfc #000000 #000000 0 1;
#X msg 218 337 0;
#X obj 111 296 inlet;
#X msg 111 320 1;
#X obj 516 855 bng 15 250 50 0 empty empty empty 17 7 0 10 #fcfcfc #000000 #000000;
#X obj 516 875 s \$0-key-a.close;
#X obj 218 312 r \$0-key-a.close;
#X obj 323 824 r \$0-key-a3;
#X obj 267 824 r \$0-key-a2;
#X obj 212 824 r \$0-key-a1;
#X obj 157 824 r \$0-key-a0;
#X obj 484 98 cnv 15 100 60 empty empty empty 20 12 0 14 #e0e0e0 #404040 0;
#X floatatom 213 146 5 0 0 0 - - - 0;
#X floatatom 162 146 5 0 0 0 - - - 0;
#X floatatom 111 146 5 0 0 0 - - - 0;
#X floatatom 263 146 5 0 0 0 - - - 0;
#X obj 111 166 bng 15 250 50 0 empty empty a0 1 8 1 12 #0c0c0c #fcfcfc #fcfcfc;
#X obj 162 166 bng 15 250 50 0 empty empty a1 1 8 1 12 #000000 #fcfcfc #fcfcfc;
#X obj 213 166 bng 15 250 50 0 empty empty a2 1 8 1 12 #000000 #fcfcfc #fcfcfc;
#X obj 263 166 bng 15 250 50 0 empty empty a3 1 8 1 12 #000000 #fcfcfc #fcfcfc;
#X obj 111 122 r \$0-key-a0;
#X obj 162 122 r \$0-key-a1;
#X obj 213 122 r \$0-key-a2;
#X obj 263 122 r \$0-key-a3;
#X obj 366 947 key;
#X obj 366 971 spigot;
#X obj 422 990 outlet;
#X obj 111 29 * -1;
#X obj 111 77 tgl 15 0 empty empty empty 17 7 0 10 #fcfcfc #000000 #000000 0 1;
#X obj 111 53 + 1;
#X obj 224 219 spigot;
#X obj 224 246 spigot;
#X obj 224 193 key;
#X obj 263 186 tgl 15 0 empty empty empty 17 7 0 10 #fcfcfc #000000 #000000 0 1;
#X obj 224 270 s \$0-key-a3;
#X obj 174 219 spigot;
#X obj 174 246 spigot;
#X obj 174 193 key;
#X obj 213 186 tgl 15 0 empty empty empty 17 7 0 10 #fcfcfc #000000 #000000 0 1;
#X obj 174 270 s \$0-key-a2;
#X obj 123 219 spigot;
#X obj 123 246 spigot;
#X obj 123 193 key;
#X obj 162 186 tgl 15 0 empty empty empty 17 7 0 10 #fcfcfc #000000 #000000 0 1;
#X obj 123 270 s \$0-key-a1;
#X obj 72 219 spigot;
#X obj 72 246 spigot;
#X obj 72 193 key;
#X obj 111 186 tgl 15 0 empty empty empty 17 7 0 10 #fcfcfc #000000 #000000 0 1;
#X obj 72 270 s \$0-key-a0;
#X obj 334 23 r \$0-key-a.close;
#X msg 334 73 0;
#X obj 516 911 loadbang;
#X obj 516 935 s \$0-key-a.tgl;
#X obj 45 313 loadbang;
#X msg 45 337 0;
#X obj 334 107 bng 30 250 50 0 empty empty RESET -1 15 1 9 #fc8000 #fcfcfc #fcfcfc;
#X msg 357 164 0;
#X obj 334 135 t b b b;
#X obj 26 459 moses 1;
#X obj 72 759 moses 1;
#X text 110 108 TECLADO - a (minús.);
#X obj 426 836 t f b;
#X obj 334 47 del 2;
#X obj 111 545 % 4;
#X obj 426 811 r \$0-key-a3;
#X obj 111 592 pack f \$0;
#X msg 111 617 symbol \$2-key-a\$1;
#X connect 4 0 5 0;
#X connect 4 0 10 0;
#X connect 5 0 6 0;
#X connect 6 0 7 0;
#X connect 6 0 96 0;
#X connect 7 0 6 1;
#X connect 8 0 98 0;
#X connect 9 0 11 0;
#X connect 11 0 91 0;
#X connect 12 0 17 0;
#X connect 13 0 14 0;
#X connect 13 0 15 0;
#X connect 13 0 16 0;
#X connect 13 0 23 0;
#X connect 14 0 24 0;
#X connect 15 0 25 0;
#X connect 16 0 26 0;
#X connect 17 0 92 0;
#X connect 18 0 17 1;
#X connect 19 0 20 0;
#X connect 20 0 18 0;
#X connect 21 0 6 0;
#X connect 22 0 21 0;
#X connect 23 0 27 0;
#X connect 24 0 0 0;
#X connect 25 0 1 0;
#X connect 26 0 2 0;
#X connect 27 0 3 0;
#X connect 28 0 24 1;
#X connect 28 0 25 1;
#X connect 28 0 26 1;
#X connect 28 0 27 1;
#X connect 28 0 57 1;
#X connect 29 0 30 0;
#X connect 30 0 28 0;
#X connect 31 0 28 0;
#X connect 32 0 11 1;
#X connect 32 0 19 0;
#X connect 32 0 22 0;
#X connect 32 0 59 0;
#X connect 33 0 32 0;
#X connect 34 0 35 0;
#X connect 35 0 32 0;
#X connect 36 0 37 0;
#X connect 38 0 33 0;
#X connect 39 0 23 1;
#X connect 40 0 16 1;
#X connect 41 0 15 1;
#X connect 42 0 14 1;
#X connect 44 0 50 0;
#X connect 45 0 49 0;
#X connect 46 0 48 0;
#X connect 47 0 51 0;
#X connect 48 0 80 0;
#X connect 49 0 75 0;
#X connect 50 0 70 0;
#X connect 51 0 65 0;
#X connect 52 0 46 0;
#X connect 53 0 45 0;
#X connect 54 0 44 0;
#X connect 55 0 47 0;
#X connect 56 0 57 0;
#X connect 57 0 58 0;
#X connect 59 0 61 0;
#X connect 60 0 62 1;
#X connect 60 0 67 1;
#X connect 60 0 72 1;
#X connect 60 0 77 1;
#X connect 61 0 60 0;
#X connect 62 0 63 0;
#X connect 63 0 66 0;
#X connect 64 0 62 0;
#X connect 65 0 63 1;
#X connect 67 0 68 0;
#X connect 68 0 71 0;
#X connect 69 0 67 0;
#X connect 70 0 68 1;
#X connect 72 0 73 0;
#X connect 73 0 76 0;
#X connect 74 0 72 0;
#X connect 75 0 73 1;
#X connect 77 0 78 0;
#X connect 78 0 81 0;
#X connect 79 0 77 0;
#X connect 80 0 78 1;
#X connect 82 0 95 0;
#X connect 83 0 65 0;
#X connect 83 0 70 0;
#X connect 83 0 75 0;
#X connect 83 0 80 0;
#X connect 84 0 85 0;
#X connect 86 0 87 0;
#X connect 87 0 32 0;
#X connect 88 0 90 0;
#X connect 89 0 66 0;
#X connect 89 0 71 0;
#X connect 89 0 76 0;
#X connect 89 0 81 0;
#X connect 90 0 83 0;
#X connect 90 1 89 0;
#X connect 90 2 35 0;
#X connect 91 1 4 0;
#X connect 92 1 13 0;
#X connect 94 1 36 0;
#X connect 95 0 83 0;
#X connect 96 0 8 0;
#X connect 97 0 94 0;
#X connect 98 0 99 0;
#X connect 99 0 10 1;
#X coords 0 -1 1 1 288 86 2 100 100;
