#N canvas 4 44 1920 997 12;
#X obj 700 -73 cnv 19 126 76 empty empty empty 20 12 0 12 #e0e0e0 #404040 0;
#X obj 586 174 catch~ signal_out_L;
#X obj 736 174 catch~ signal_out_R;
#X obj 241 254 vu 20 120 empty empty -1 -10 0 12 #404040 #000000 1 0;
#X obj 586 383 dac~, f 22;
#X obj 351 254 vu 20 120 empty empty -1 -10 0 12 #404040 #000000 1 0;
#X obj 586 258 *~;
#X obj 736 258 *~;
#X obj 873 239 ramp~ 100;
#X obj 873 210 r \$0-volume;
#X obj 127 163 s \$0-volume;
#X obj 586 228 *~;
#X obj 736 228 *~;
#X msg 127 66 1;
#X obj 127 42 loadbang;
#X obj 603 53 cos;
#X obj 603 98 + 1;
#X obj 603 122 / 2;
#X obj 753 72 * -1;
#X obj 753 96 + 1;
#X obj 753 120 / 2;
#X obj 603 146 sqrt;
#X obj 753 146 sqrt;
#X obj 603 -22 + 1;
#X obj 603 3 / 2;
#X obj 603 28 * 3.14159;
#X obj 603 201 ramp~ 100;
#X obj 753 201 ramp~ 100;
#X obj 603 -49 r \$0-panning;
#X obj 130 131 hsl 240 25 0 1 0 0 empty empty Volume -2 -10 0 12 #c6ffc7 #000000 #000000 0 1;
#X obj 130 182 hsl 240 25 -1 1 0 0 empty empty Panning -2 -10 0 12 #c7c6ff #000000 #000000 0 1;
#X obj 27 139 loadbang;
#X msg 27 163 0;
#X obj 127 212 s \$0-panning;
#X obj 586 340 s \$0-vumeter_L;
#X obj 736 340 s \$0-vumeter_R;
#X obj 350 221 r \$0-vumeter_R;
#X obj 240 221 r \$0-vumeter_L;
#X obj 586 287 env~;
#X obj 736 287 env~;
#X obj 586 311 - 96;
#X obj 736 311 - 96;
#X obj 27 209 loadbang;
#X msg 27 233 1;
#X obj 127 252 tgl 40 0 empty empty DSP 3 21 0 20 #c6ffc7 #000000 #000000 0 1;
#X msg 127 297 \; pd dsp \$1;
#X connect 1 0 11 0;
#X connect 2 0 12 0;
#X connect 6 0 4 0;
#X connect 6 0 38 0;
#X connect 7 0 4 1;
#X connect 7 0 39 0;
#X connect 8 0 7 1;
#X connect 8 0 6 1;
#X connect 9 0 8 0;
#X connect 11 0 6 0;
#X connect 12 0 7 0;
#X connect 13 0 29 0;
#X connect 14 0 13 0;
#X connect 15 0 16 0;
#X connect 15 0 18 0;
#X connect 16 0 17 0;
#X connect 17 0 21 0;
#X connect 18 0 19 0;
#X connect 19 0 20 0;
#X connect 20 0 22 0;
#X connect 21 0 26 0;
#X connect 22 0 27 0;
#X connect 23 0 24 0;
#X connect 24 0 25 0;
#X connect 25 0 15 0;
#X connect 26 0 11 1;
#X connect 27 0 12 1;
#X connect 28 0 23 0;
#X connect 29 0 10 0;
#X connect 30 0 33 0;
#X connect 31 0 32 0;
#X connect 32 0 30 0;
#X connect 36 0 5 0;
#X connect 37 0 3 0;
#X connect 38 0 40 0;
#X connect 39 0 41 0;
#X connect 40 0 34 0;
#X connect 41 0 35 0;
#X connect 42 0 43 0;
#X connect 43 0 44 0;
#X connect 44 0 45 0;
#X coords 0 -1 1 1 300 300 2 100 100;
