#N canvas 953 0 958 988 12;
#X obj 24 136 osc~;
#X obj 24 220 *~;
#X obj 244 136 osc~;
#X obj 244 220 *~;
#X obj 444 136 osc~;
#X obj 444 220 *~;
#X obj 644 136 osc~;
#X obj 644 220 *~;
#X obj 844 136 osc~;
#X obj 844 220 *~;
#X obj 1044 136 osc~;
#X obj 1044 220 *~;
#X obj 1244 136 osc~;
#X obj 1244 220 *~;
#X obj 1444 136 osc~;
#X obj 1444 220 *~;
#X obj 1644 136 osc~;
#X obj 1644 220 *~;
#X obj 1844 136 osc~;
#X obj 1844 220 *~;
#X obj 1869 103 r \$0-ph;
#X obj 1669 103 r \$0-ph;
#X obj 1469 103 r \$0-ph;
#X obj 1269 103 r \$0-ph;
#X obj 1069 103 r \$0-ph;
#X obj 869 103 r \$0-ph;
#X obj 669 103 r \$0-ph;
#X obj 469 103 r \$0-ph;
#X obj 269 103 r \$0-ph;
#X obj 49 103 r \$0-ph;
#X obj 88 201 random1, f 10;
#X obj 298 201 random1, f 10;
#X obj 498 201 random1, f 10;
#X obj 698 201 random1, f 10;
#X obj 898 201 random1, f 10;
#X obj 1098 201 random1, f 10;
#X obj 1298 201 random1, f 10;
#X obj 1498 201 random1, f 10;
#X obj 1698 201 random1, f 10;
#X obj 1898 201 random1, f 10;
#X obj 88 174 / 1;
#X obj 298 174 / 1.1;
#X obj 498 174 / 1.2;
#X obj 698 174 / 1.3;
#X obj 898 174 / 1.4;
#X obj 1098 174 / 1.5;
#X obj 1298 174 / 1.6;
#X obj 1498 174 / 1.7;
#X obj 1698 174 / 1.8;
#X obj 1898 174 / 1.9;
#X obj 1965 174 1;
#X obj 24 456 osc~;
#X obj 24 540 *~;
#X obj 244 456 osc~;
#X obj 244 540 *~;
#X obj 444 456 osc~;
#X obj 444 540 *~;
#X obj 644 456 osc~;
#X obj 644 540 *~;
#X obj 844 456 osc~;
#X obj 844 540 *~;
#X obj 1044 456 osc~;
#X obj 1044 540 *~;
#X obj 1244 456 osc~;
#X obj 1244 540 *~;
#X obj 1444 456 osc~;
#X obj 1444 540 *~;
#X obj 1644 456 osc~;
#X obj 1644 540 *~;
#X obj 1844 456 osc~;
#X obj 1844 540 *~;
#X obj 1869 423 r \$0-ph;
#X obj 1669 423 r \$0-ph;
#X obj 1469 423 r \$0-ph;
#X obj 1269 423 r \$0-ph;
#X obj 1069 423 r \$0-ph;
#X obj 869 423 r \$0-ph;
#X obj 669 423 r \$0-ph;
#X obj 469 423 r \$0-ph;
#X obj 269 423 r \$0-ph;
#X obj 49 423 r \$0-ph;
#X obj 88 521 random1, f 10;
#X obj 298 521 random1, f 10;
#X obj 498 521 random1, f 10;
#X obj 698 521 random1, f 10;
#X obj 898 521 random1, f 10;
#X obj 1098 521 random1, f 10;
#X obj 1298 521 random1, f 10;
#X obj 1498 521 random1, f 10;
#X obj 1698 521 random1, f 10;
#X obj 1898 521 random1, f 10;
#X obj 155 494 1;
#X obj 365 494 1;
#X obj 88 494 / 2;
#X obj 298 494 / 2;
#X obj 498 494 / 2;
#X obj 698 494 / 2;
#X obj 898 494 / 2;
#X obj 1098 494 / 2;
#X obj 1298 494 / 2;
#X obj 1498 494 / 2;
#X obj 1698 494 / 2;
#X obj 1898 494 / 2;
#X obj 155 174 1.7;
#X obj 365 174 1.6;
#X obj 565 174 1.5;
#X obj 765 174 1.4;
#X obj 965 174 1.3;
#X obj 1165 174 1.2;
#X obj 1765 174 1;
#X obj 1365 174 1.1;
#X obj 1565 174 1;
#X obj 565 494 1;
#X obj 765 494 1.1;
#X obj 965 494 1.2;
#X obj 1165 494 1.3;
#X obj 1365 494 1.4;
#X obj 1565 494 1.5;
#X obj 1765 494 1.6;
#X obj 1965 494 1.7;
#X obj 24 -399 inlet;
#X obj 24 -114 s \$0-freq;
#X obj 24 39 r \$0-freq;
#X obj 244 39 r \$0-freq;
#X obj 444 39 r \$0-freq;
#X obj 644 39 r \$0-freq;
#X obj 844 39 r \$0-freq;
#X obj 1044 39 r \$0-freq;
#X obj 1244 39 r \$0-freq;
#X obj 1444 39 r \$0-freq;
#X obj 1644 39 r \$0-freq;
#X obj 1844 39 r \$0freq;
#X obj 24 359 r \$0-freq;
#X obj 244 359 r \$0-freq;
#X obj 444 359 r \$0-freq;
#X obj 644 359 r \$0-freq;
#X obj 844 359 r \$0-freq;
#X obj 1044 359 r \$0-freq;
#X obj 1244 359 r \$0-freq;
#X obj 1444 359 r \$0-freq;
#X obj 1644 359 r \$0-freq;
#X obj 1844 359 r \$0-freq;
#X obj 244 75 expr $f1 * pow($f2 \, $f3);
#X obj 444 75 expr $f1 * pow($f2 \, $f3);
#X obj 644 75 expr $f1 * pow($f2 \, $f3);
#X obj 844 75 expr $f1 * pow($f2 \, $f3);
#X obj 1044 75 expr $f1 * pow($f2 \, $f3);
#X obj 1244 75 expr $f1 * pow($f2 \, $f3);
#X obj 1444 75 expr $f1 * pow($f2 \, $f3);
#X obj 1644 75 expr $f1 * pow($f2 \, $f3);
#X obj 1844 75 expr $f1 * pow($f2 \, $f3);
#X obj 24 75 expr $f1 * pow($f2 \, $f3);
#X obj 24 395 expr $f1 * pow($f2 \, $f3);
#X obj 526 39 r \$0-int;
#X obj 326 39 r \$0-int;
#X obj 106 39 r \$0-int;
#X obj 726 39 r \$0-int;
#X obj 926 39 r \$0-int;
#X obj 1126 39 r \$0-int;
#X obj 1326 39 r \$0-int;
#X obj 1526 39 r \$0-int;
#X obj 1726 39 r \$0-int;
#X obj 1926 39 r \$0-int;
#X obj 106 359 r \$0-int;
#X obj 244 395 expr $f1 * pow($f2 \, $f3);
#X obj 326 359 r \$0-int;
#X obj 444 395 expr $f1 * pow($f2 \, $f3);
#X obj 526 359 r \$0-int;
#X obj 644 395 expr $f1 * pow($f2 \, $f3);
#X obj 726 359 r \$0-int;
#X obj 844 395 expr $f1 * pow($f2 \, $f3);
#X obj 926 359 r \$0-int;
#X obj 1044 395 expr $f1 * pow($f2 \, $f3);
#X obj 1126 359 r \$0-int;
#X obj 1244 395 expr $f1 * pow($f2 \, $f3);
#X obj 1326 359 r \$0-int;
#X obj 1444 395 expr $f1 * pow($f2 \, $f3);
#X obj 1526 359 r \$0-int;
#X obj 1644 395 expr $f1 * pow($f2 \, $f3);
#X obj 1726 359 r \$0-int;
#X obj 1844 395 expr $f1 * pow($f2 \, $f3);
#X obj 1926 359 r \$0-int;
#X obj 189 39 0;
#X obj 2009 39 9;
#X obj 1809 39 8;
#X obj 1609 39 7;
#X obj 1409 39 6;
#X obj 1209 39 5;
#X obj 1009 39 4;
#X obj 809 39 3;
#X obj 609 39 2;
#X obj 409 39 1;
#X obj 189 359 10;
#X obj 2009 359 19;
#X obj 1809 359 18;
#X obj 1609 359 17;
#X obj 1409 359 16;
#X obj 1209 359 15;
#X obj 1009 359 14;
#X obj 809 359 13;
#X obj 609 359 12;
#X obj 409 359 11;
#X obj 112 -399 inlet;
#X obj 147 -114 s \$0-int;
#X obj 24 -139 line;
#X obj 147 -139 line;
#X obj 24 244 throw~ \$0-sig.a;
#X obj 244 244 throw~ \$0-sig.b;
#X obj 444 244 throw~ \$0-sig.a;
#X obj 644 244 throw~ \$0-sig.b;
#X obj 844 244 throw~ \$0-sig.a;
#X obj 1044 244 throw~ \$0-sig.b;
#X obj 1244 244 throw~ \$0-sig.a;
#X obj 1444 244 throw~ \$0-sig.b;
#X obj 1644 244 throw~ \$0-sig.a;
#X obj 1844 244 throw~ \$0-sig.b;
#X obj 24 564 throw~ \$0-sig.a;
#X obj 244 564 throw~ \$0-sig.b;
#X obj 444 564 throw~ \$0-sig.a;
#X obj 644 564 throw~ \$0-sig.b;
#X obj 844 564 throw~ \$0-sig.a;
#X obj 1044 564 throw~ \$0-sig.b;
#X obj 1244 564 throw~ \$0-sig.a;
#X obj 1444 564 throw~ \$0-sig.b;
#X obj 1644 564 throw~ \$0-sig.a;
#X obj 1844 564 throw~ \$0-sig.b;
#X obj 394 -171 loadbang;
#X obj 394 -91 s \$0-time;
#X obj 470 -91 s \$0-limit;
#X obj 546 -91 s \$0-exp;
#X obj 189 9 r \$0-exp;
#X obj 88 150 r \$0-time;
#X obj 155 150 r \$0-limit;
#X obj 298 150 r \$0-time;
#X obj 365 150 r \$0-limit;
#X obj 498 150 r \$0-time;
#X obj 409 9 r \$0-exp;
#X obj 609 9 r \$0-exp;
#X obj 565 150 r \$0-limit;
#X obj 809 9 r \$0-exp;
#X obj 698 150 r \$0-time;
#X obj 765 150 r \$0-limit;
#X obj 1009 9 r \$0-exp;
#X obj 898 150 r \$0-time;
#X obj 965 150 r \$0-limit;
#X obj 1209 9 r \$0-exp;
#X obj 1098 150 r \$0-time;
#X obj 1165 150 r \$0-limit;
#X obj 1409 9 r \$0-exp;
#X obj 1298 150 r \$0-time;
#X obj 1365 150 r \$0-limit;
#X obj 1609 9 r \$0-exp;
#X obj 1498 150 r \$0-time;
#X obj 1565 150 r \$0-limit;
#X obj 1809 9 r \$0-exp;
#X obj 1698 150 r \$0-time;
#X obj 1765 150 r \$0-limit;
#X obj 2009 9 r \$0-exp;
#X obj 1898 150 r \$0-time;
#X obj 1965 150 r \$0-limit;
#X obj 189 329 r \$0-exp;
#X obj 409 329 r \$0-exp;
#X obj 609 329 r \$0-exp;
#X obj 809 329 r \$0-exp;
#X obj 1009 329 r \$0-exp;
#X obj 1209 329 r \$0-exp;
#X obj 1409 329 r \$0-exp;
#X obj 1609 329 r \$0-exp;
#X obj 1809 329 r \$0-exp;
#X obj 2009 329 r \$0-exp;
#X obj 88 470 r \$0-time;
#X obj 155 470 r \$0-limit;
#X obj 298 470 r \$0-time;
#X obj 365 470 r \$0-limit;
#X obj 498 470 r \$0-time;
#X obj 565 470 r \$0-limit;
#X obj 698 470 r \$0-time;
#X obj 765 470 r \$0-limit;
#X obj 898 470 r \$0-time;
#X obj 965 470 r \$0-limit;
#X obj 1098 470 r \$0-time;
#X obj 1165 470 r \$0-limit;
#X obj 1298 470 r \$0-time;
#X obj 1365 470 r \$0-limit;
#X obj 1498 470 r \$0-time;
#X obj 1565 470 r \$0-limit;
#X obj 1698 470 r \$0-time;
#X obj 1765 470 r \$0-limit;
#X obj 1898 470 r \$0-time;
#X obj 1965 470 r \$0-limit;
#X obj 844 704 catch~ \$0-sig.a;
#X obj 1044 704 catch~ \$0-sig.b;
#X obj 844 752 outlet~;
#X obj 1044 752 outlet~;
#X msg 394 -116 1000;
#X obj 260 -114 s random.on-off;
#X obj 260 -163 loadbang;
#X msg 260 -139 1;
#X obj 147 -164 pack f 200;
#X obj 24 -164 pack f 50;
#X obj 112 -324 expr $f1 / $f2;
#X floatatom 112 -300 5 0 0 0 - - - 0;
#X obj 24 -240 pack f f, f 13;
#X obj 24 -216 unpack f f, f 18;
#X obj 207 -399 inlet;
#X obj 394 -141 t b b b b, f 33;
#X obj 622 -91 s \$0-ph;
#X msg 622 -116 0.75;
#X obj 844 728 /~ 5;
#X obj 1044 728 /~ 5;
#X connect 0 0 1 0;
#X connect 1 0 206 0;
#X connect 2 0 3 0;
#X connect 3 0 207 0;
#X connect 4 0 5 0;
#X connect 5 0 208 0;
#X connect 6 0 7 0;
#X connect 7 0 209 0;
#X connect 8 0 9 0;
#X connect 9 0 210 0;
#X connect 10 0 11 0;
#X connect 11 0 211 0;
#X connect 12 0 13 0;
#X connect 13 0 212 0;
#X connect 14 0 15 0;
#X connect 15 0 213 0;
#X connect 16 0 17 0;
#X connect 17 0 214 0;
#X connect 18 0 19 0;
#X connect 19 0 215 0;
#X connect 20 0 18 1;
#X connect 21 0 16 1;
#X connect 22 0 14 1;
#X connect 23 0 12 1;
#X connect 24 0 10 1;
#X connect 25 0 8 1;
#X connect 26 0 6 1;
#X connect 27 0 4 1;
#X connect 28 0 2 1;
#X connect 29 0 0 1;
#X connect 30 0 1 1;
#X connect 31 0 3 1;
#X connect 32 0 5 0;
#X connect 33 0 7 1;
#X connect 34 0 9 1;
#X connect 35 0 11 1;
#X connect 36 0 13 1;
#X connect 37 0 15 1;
#X connect 38 0 17 1;
#X connect 39 0 19 1;
#X connect 40 0 30 0;
#X connect 41 0 31 0;
#X connect 42 0 32 0;
#X connect 43 0 33 0;
#X connect 44 0 34 0;
#X connect 45 0 35 0;
#X connect 46 0 36 0;
#X connect 47 0 37 0;
#X connect 48 0 38 0;
#X connect 49 0 39 0;
#X connect 50 0 39 1;
#X connect 51 0 52 0;
#X connect 52 0 216 0;
#X connect 53 0 54 0;
#X connect 54 0 217 0;
#X connect 55 0 56 0;
#X connect 56 0 218 0;
#X connect 57 0 58 0;
#X connect 58 0 219 0;
#X connect 59 0 60 0;
#X connect 60 0 220 0;
#X connect 61 0 62 0;
#X connect 62 0 221 0;
#X connect 63 0 64 0;
#X connect 64 0 222 0;
#X connect 65 0 66 0;
#X connect 66 0 223 0;
#X connect 67 0 68 0;
#X connect 68 0 224 0;
#X connect 69 0 70 0;
#X connect 70 0 225 0;
#X connect 71 0 69 1;
#X connect 72 0 67 1;
#X connect 73 0 65 1;
#X connect 74 0 63 1;
#X connect 75 0 61 1;
#X connect 76 0 59 1;
#X connect 77 0 57 1;
#X connect 78 0 55 1;
#X connect 79 0 53 1;
#X connect 80 0 51 1;
#X connect 81 0 52 1;
#X connect 82 0 54 1;
#X connect 83 0 56 0;
#X connect 84 0 58 1;
#X connect 85 0 60 1;
#X connect 86 0 62 1;
#X connect 87 0 64 1;
#X connect 88 0 66 1;
#X connect 89 0 68 1;
#X connect 90 0 70 1;
#X connect 91 0 81 1;
#X connect 92 0 82 1;
#X connect 93 0 81 0;
#X connect 94 0 82 0;
#X connect 95 0 83 0;
#X connect 96 0 84 0;
#X connect 97 0 85 0;
#X connect 98 0 86 0;
#X connect 99 0 87 0;
#X connect 100 0 88 0;
#X connect 101 0 89 0;
#X connect 102 0 90 0;
#X connect 103 0 30 1;
#X connect 104 0 31 1;
#X connect 105 0 32 1;
#X connect 106 0 33 1;
#X connect 107 0 34 1;
#X connect 108 0 35 1;
#X connect 109 0 38 1;
#X connect 110 0 36 1;
#X connect 111 0 37 1;
#X connect 112 0 83 1;
#X connect 113 0 84 1;
#X connect 114 0 85 1;
#X connect 115 0 86 1;
#X connect 116 0 87 1;
#X connect 117 0 88 1;
#X connect 118 0 89 1;
#X connect 119 0 90 1;
#X connect 120 0 302 0;
#X connect 122 0 151 0;
#X connect 123 0 142 0;
#X connect 124 0 143 0;
#X connect 125 0 144 0;
#X connect 126 0 145 0;
#X connect 127 0 146 0;
#X connect 128 0 147 0;
#X connect 129 0 148 0;
#X connect 130 0 149 0;
#X connect 131 0 150 0;
#X connect 132 0 152 0;
#X connect 133 0 164 0;
#X connect 134 0 166 0;
#X connect 135 0 168 0;
#X connect 136 0 170 0;
#X connect 137 0 172 0;
#X connect 138 0 174 0;
#X connect 139 0 176 0;
#X connect 140 0 178 0;
#X connect 141 0 180 0;
#X connect 142 0 2 0;
#X connect 143 0 4 0;
#X connect 144 0 6 0;
#X connect 145 0 8 0;
#X connect 146 0 10 0;
#X connect 147 0 12 0;
#X connect 148 0 14 0;
#X connect 149 0 16 0;
#X connect 150 0 18 0;
#X connect 151 0 0 0;
#X connect 152 0 51 0;
#X connect 153 0 143 1;
#X connect 154 0 142 1;
#X connect 155 0 151 1;
#X connect 156 0 144 1;
#X connect 157 0 145 1;
#X connect 158 0 146 1;
#X connect 159 0 147 1;
#X connect 160 0 148 1;
#X connect 161 0 149 1;
#X connect 162 0 150 1;
#X connect 163 0 152 1;
#X connect 164 0 53 0;
#X connect 165 0 164 1;
#X connect 166 0 55 0;
#X connect 167 0 166 1;
#X connect 168 0 57 0;
#X connect 169 0 168 1;
#X connect 170 0 59 0;
#X connect 171 0 170 1;
#X connect 172 0 61 0;
#X connect 173 0 172 1;
#X connect 174 0 63 0;
#X connect 175 0 174 1;
#X connect 176 0 65 0;
#X connect 177 0 176 1;
#X connect 178 0 67 0;
#X connect 179 0 178 1;
#X connect 180 0 69 0;
#X connect 181 0 180 1;
#X connect 182 0 151 2;
#X connect 183 0 150 2;
#X connect 184 0 149 2;
#X connect 185 0 148 2;
#X connect 186 0 147 2;
#X connect 187 0 146 2;
#X connect 188 0 145 2;
#X connect 189 0 144 2;
#X connect 190 0 143 2;
#X connect 191 0 142 2;
#X connect 192 0 152 2;
#X connect 193 0 180 2;
#X connect 194 0 178 2;
#X connect 195 0 176 2;
#X connect 196 0 174 2;
#X connect 197 0 172 2;
#X connect 198 0 170 2;
#X connect 199 0 168 2;
#X connect 200 0 166 2;
#X connect 201 0 164 2;
#X connect 202 0 300 0;
#X connect 204 0 121 0;
#X connect 205 0 203 0;
#X connect 226 0 305 0;
#X connect 230 0 182 0;
#X connect 231 0 40 0;
#X connect 232 0 103 0;
#X connect 233 0 41 0;
#X connect 234 0 104 0;
#X connect 235 0 42 0;
#X connect 236 0 191 0;
#X connect 237 0 190 0;
#X connect 238 0 105 0;
#X connect 239 0 189 0;
#X connect 240 0 43 0;
#X connect 241 0 106 0;
#X connect 242 0 188 0;
#X connect 243 0 44 0;
#X connect 244 0 107 0;
#X connect 245 0 187 0;
#X connect 246 0 45 0;
#X connect 247 0 108 0;
#X connect 248 0 186 0;
#X connect 249 0 46 0;
#X connect 250 0 110 0;
#X connect 251 0 185 0;
#X connect 252 0 47 0;
#X connect 253 0 111 0;
#X connect 254 0 184 0;
#X connect 255 0 48 0;
#X connect 256 0 109 0;
#X connect 257 0 183 0;
#X connect 258 0 49 0;
#X connect 259 0 50 0;
#X connect 260 0 192 0;
#X connect 261 0 201 0;
#X connect 262 0 200 0;
#X connect 263 0 199 0;
#X connect 264 0 198 0;
#X connect 265 0 197 0;
#X connect 266 0 196 0;
#X connect 267 0 195 0;
#X connect 268 0 194 0;
#X connect 269 0 193 0;
#X connect 270 0 93 0;
#X connect 271 0 91 0;
#X connect 272 0 94 0;
#X connect 273 0 92 0;
#X connect 274 0 95 0;
#X connect 275 0 112 0;
#X connect 276 0 96 0;
#X connect 277 0 113 0;
#X connect 278 0 97 0;
#X connect 279 0 114 0;
#X connect 280 0 98 0;
#X connect 281 0 115 0;
#X connect 282 0 99 0;
#X connect 283 0 116 0;
#X connect 284 0 100 0;
#X connect 285 0 117 0;
#X connect 286 0 101 0;
#X connect 287 0 118 0;
#X connect 288 0 102 0;
#X connect 289 0 119 0;
#X connect 290 0 308 0;
#X connect 291 0 309 0;
#X connect 294 0 227 0;
#X connect 296 0 297 0;
#X connect 297 0 295 0;
#X connect 298 0 205 0;
#X connect 299 0 204 0;
#X connect 300 0 301 0;
#X connect 301 0 302 1;
#X connect 302 0 303 0;
#X connect 303 0 299 0;
#X connect 303 1 298 0;
#X connect 304 0 300 1;
#X connect 305 0 294 0;
#X connect 305 1 228 0;
#X connect 305 2 229 0;
#X connect 305 3 307 0;
#X connect 307 0 306 0;
#X connect 308 0 292 0;
#X connect 309 0 293 0;
