#N canvas 0 23 1920 997 12;
#X obj 24 136 osc~;
#X obj 24 220 *~;
#X obj 244 136 osc~;
#X obj 244 220 *~;
#X obj 464 136 osc~;
#X obj 464 220 *~;
#X obj 684 136 osc~;
#X obj 684 220 *~;
#X obj 904 136 osc~;
#X obj 904 220 *~;
#X obj 1124 136 osc~;
#X obj 1124 220 *~;
#X obj 1344 136 osc~;
#X obj 1344 220 *~;
#X obj 1564 136 osc~;
#X obj 1564 220 *~;
#X obj 1784 136 osc~;
#X obj 1784 220 *~;
#X obj 2004 136 osc~;
#X obj 2004 220 *~;
#X obj 2029 103 r ph;
#X obj 1809 103 r ph;
#X obj 1589 103 r ph;
#X obj 1369 103 r ph;
#X obj 1149 103 r ph;
#X obj 929 103 r ph;
#X obj 709 103 r ph;
#X obj 489 103 r ph;
#X obj 269 103 r ph;
#X obj 49 103 r ph;
#X obj 88 139 random.abs;
#X obj 88 112 / 1;
#X obj 24 456 osc~;
#X obj 24 540 *~;
#X obj 244 456 osc~;
#X obj 244 540 *~;
#X obj 464 456 osc~;
#X obj 464 540 *~;
#X obj 684 456 osc~;
#X obj 684 540 *~;
#X obj 904 456 osc~;
#X obj 904 540 *~;
#X obj 1124 456 osc~;
#X obj 1124 540 *~;
#X obj 1344 456 osc~;
#X obj 1344 540 *~;
#X obj 1564 456 osc~;
#X obj 1564 540 *~;
#X obj 1784 456 osc~;
#X obj 1784 540 *~;
#X obj 2004 456 osc~;
#X obj 2004 540 *~;
#X obj 2029 423 r ph;
#X obj 1809 423 r ph;
#X obj 1589 423 r ph;
#X obj 1369 423 r ph;
#X obj 1149 423 r ph;
#X obj 929 423 r ph;
#X obj 709 423 r ph;
#X obj 489 423 r ph;
#X obj 269 423 r ph;
#X obj 49 423 r ph;
#X obj 1124 244 throw~ sig.b;
#X obj 155 112 1.7;
#X obj 24 75 * 1;
#X obj 244 75 * 2;
#X obj 464 75 * 3;
#X obj 684 75 * 4;
#X obj 904 75 * 5;
#X obj 1124 75 * 6;
#X obj 1344 75 * 7;
#X obj 1564 75 * 8;
#X obj 1784 75 * 9;
#X obj 2004 75 * 10;
#X obj 24 395 * 11;
#X obj 244 395 * 12;
#X obj 464 395 * 13;
#X obj 684 395 * 14;
#X obj 904 395 * 15;
#X obj 1124 395 * 16;
#X obj 1344 395 * 17;
#X obj 1564 395 * 18;
#X obj 1784 395 * 19;
#X obj 2004 395 * 20;
#X obj 24 -51 inlet;
#X obj 24 -21 s \$0-freq;
#X obj 24 39 r \$0-freq;
#X obj 244 39 r \$0-freq;
#X obj 464 39 r \$0-freq;
#X obj 684 39 r \$0-freq;
#X obj 904 39 r \$0-freq;
#X obj 1124 39 r \$0-freq;
#X obj 1344 39 r \$0-freq;
#X obj 1564 39 r \$0-freq;
#X obj 1784 39 r \$0-freq;
#X obj 2004 39 r \$0freq;
#X obj 24 359 r \$0-freq;
#X obj 244 359 r \$0-freq;
#X obj 464 359 r \$0-freq;
#X obj 684 359 r \$0-freq;
#X obj 904 359 r \$0-freq;
#X obj 1124 359 r \$0-freq;
#X obj 1344 359 r \$0-freq;
#X obj 1564 359 r \$0-freq;
#X obj 1784 359 r \$0-freq;
#X obj 2004 359 r \$0-freq;
#X obj 88 163 osc~;
#X obj 88 187 expr~ ((($v1 + 1) / 2.22) + 0.1) / $f2, f 19;
#X obj 308 139 random.abs;
#X obj 308 163 osc~;
#X obj 308 187 expr~ ((($v1 + 1) / 2.22) + 0.1) / $f2, f 19;
#X obj 375 112 1.6;
#X obj 528 139 random.abs;
#X obj 528 163 osc~;
#X obj 528 187 expr~ ((($v1 + 1) / 2.22) + 0.1) / $f2, f 19;
#X obj 748 139 random.abs;
#X obj 748 163 osc~;
#X obj 748 187 expr~ ((($v1 + 1) / 2.22) + 0.1) / $f2, f 19;
#X obj 968 139 random.abs;
#X obj 968 163 osc~;
#X obj 968 187 expr~ ((($v1 + 1) / 2.22) + 0.1) / $f2, f 19;
#X obj 1188 139 random.abs;
#X obj 1188 163 osc~;
#X obj 1188 187 expr~ ((($v1 + 1) / 2.22) + 0.1) / $f2, f 19;
#X obj 1408 139 random.abs;
#X obj 1408 163 osc~;
#X obj 1408 187 expr~ ((($v1 + 1) / 2.22) + 0.1) / $f2, f 19;
#X obj 1628 139 random.abs;
#X obj 1628 163 osc~;
#X obj 1628 187 expr~ ((($v1 + 1) / 2.22) + 0.1) / $f2, f 19;
#X obj 1848 139 random.abs;
#X obj 1848 163 osc~;
#X obj 1848 187 expr~ ((($v1 + 1) / 2.22) + 0.1) / $f2, f 19;
#X obj 2068 139 random.abs;
#X obj 2068 163 osc~;
#X obj 2068 187 expr~ ((($v1 + 1) / 2.22) + 0.1) / $f2, f 19;
#X obj 88 459 random.abs;
#X obj 88 483 osc~;
#X obj 88 507 expr~ ((($v1 + 1) / 2.22) + 0.1) / $f2, f 19;
#X obj 308 459 random.abs;
#X obj 308 483 osc~;
#X obj 308 507 expr~ ((($v1 + 1) / 2.22) + 0.1) / $f2, f 19;
#X obj 528 459 random.abs;
#X obj 528 483 osc~;
#X obj 528 507 expr~ ((($v1 + 1) / 2.22) + 0.1) / $f2, f 19;
#X obj 748 459 random.abs;
#X obj 748 483 osc~;
#X obj 748 507 expr~ ((($v1 + 1) / 2.22) + 0.1) / $f2, f 19;
#X obj 968 459 random.abs;
#X obj 968 483 osc~;
#X obj 968 507 expr~ ((($v1 + 1) / 2.22) + 0.1) / $f2, f 19;
#X obj 1188 459 random.abs;
#X obj 1188 483 osc~;
#X obj 1188 507 expr~ ((($v1 + 1) / 2.22) + 0.1) / $f2, f 19;
#X obj 1408 459 random.abs;
#X obj 1408 483 osc~;
#X obj 1408 507 expr~ ((($v1 + 1) / 2.22) + 0.1) / $f2, f 19;
#X obj 1628 459 random.abs;
#X obj 1628 483 osc~;
#X obj 1628 507 expr~ ((($v1 + 1) / 2.22) + 0.1) / $f2, f 19;
#X obj 1848 459 random.abs;
#X obj 1848 483 osc~;
#X obj 1848 507 expr~ ((($v1 + 1) / 2.22) + 0.1) / $f2, f 19;
#X obj 2068 459 random.abs;
#X obj 2135 432 1.7;
#X obj 2068 483 osc~;
#X obj 2068 507 expr~ ((($v1 + 1) / 2.22) + 0.1) / $f2, f 19;
#X obj 308 112 / 1.1;
#X obj 528 112 / 1.2;
#X obj 748 112 / 1.3;
#X obj 968 112 / 1.4;
#X obj 1188 112 / 1.5;
#X obj 1408 112 / 1.6;
#X obj 1628 112 / 1.7;
#X obj 1848 112 / 1.8;
#X obj 2068 112 / 1.9;
#X obj 88 432 / 2;
#X obj 308 432 / 2;
#X obj 528 432 / 2;
#X obj 748 432 / 2;
#X obj 968 432 / 2;
#X obj 1188 432 / 2;
#X obj 1408 432 / 2;
#X obj 1628 432 / 2;
#X obj 1848 432 / 2;
#X obj 2068 432 / 2;
#X obj 595 112 1.5;
#X obj 815 112 1.4;
#X obj 1035 112 1.3;
#X obj 1255 112 1.2;
#X obj 1475 112 1.1;
#X obj 1695 112 1;
#X obj 1915 112 1;
#X obj 2135 112 1;
#X obj 155 432 1;
#X obj 375 432 1;
#X obj 595 432 1;
#X obj 815 432 1.1;
#X obj 1035 432 1.2;
#X obj 1255 432 1.3;
#X obj 1475 432 1.4;
#X obj 1695 432 1.5;
#X obj 1915 432 1.6;
#X obj 24 244 throw~ \$0-sig.a;
#X obj 244 244 throw~ \$0-sig.b;
#X obj 464 244 throw~ \$0-sig.a;
#X obj 684 244 throw~ \$0-sig.b;
#X obj 904 244 throw~ \$0-sig.a;
#X obj 1344 244 throw~ \$0-sig.a;
#X obj 1564 244 throw~ \$0-sig.b;
#X obj 1784 244 throw~ \$0-sig.a;
#X obj 24 564 throw~ \$0-sig.a;
#X obj 244 564 throw~ \$0-sig.b;
#X obj 464 564 throw~ \$0-sig.a;
#X obj 684 564 throw~ \$0-sig.b;
#X obj 904 564 throw~ \$0-sig.a;
#X obj 1124 564 throw~ \$0-sig.b;
#X obj 1344 564 throw~ \$0-sig.a;
#X obj 1564 564 throw~ \$0-sig.b;
#X obj 1784 564 throw~ \$0-sig.a;
#X obj 2004 564 throw~ \$0-sig.b;
#X msg 259 -50 1000;
#X obj 259 -109 loadbang;
#X obj 259 -21 s \$0-time;
#X obj 410 -21 s \$0-limit;
#X obj 88 88 r \$0-time;
#X obj 155 88 r \$0-limit;
#X obj 308 88 r \$0-time;
#X obj 375 88 r \$0-limit;
#X obj 528 88 r \$0-time;
#X obj 595 88 r \$0-limit;
#X obj 748 88 r \$0-time;
#X obj 815 88 r \$0-limit;
#X obj 968 88 r \$0-time;
#X obj 1035 88 r \$0-limit;
#X obj 1188 88 r \$0-time;
#X obj 1255 88 r \$0-limit;
#X obj 1408 88 r \$0-time;
#X obj 1475 88 r \$0-limit;
#X obj 1628 88 r \$0-time;
#X obj 1695 88 r \$0-limit;
#X obj 1848 88 r \$0-time;
#X obj 1915 88 r \$0-limit;
#X obj 2068 88 r \$0-time;
#X obj 2135 88 r \$0-limit;
#X obj 259 -77 t b b, f 22;
#X obj 88 408 r \$0-time;
#X obj 155 408 r \$0-limit;
#X obj 308 408 r \$0-time;
#X obj 375 408 r \$0-limit;
#X obj 528 408 r \$0-time;
#X obj 595 408 r \$0-limit;
#X obj 748 408 r \$0-time;
#X obj 815 408 r \$0-limit;
#X obj 968 408 r \$0-time;
#X obj 1035 408 r \$0-limit;
#X obj 1188 408 r \$0-time;
#X obj 1255 408 r \$0-limit;
#X obj 1408 408 r \$0-time;
#X obj 1475 408 r \$0-limit;
#X obj 1628 408 r \$0-time;
#X obj 1695 408 r \$0-limit;
#X obj 1848 408 r \$0-time;
#X obj 1915 408 r \$0-limit;
#X obj 2068 408 r \$0-time;
#X obj 2135 408 r \$0-limit;
#X obj 2004 244 throw~ \$0-sig.b;
#X obj 904 714 catch~ \$0-sig.a;
#X obj 1124 714 catch~ \$0-sig.b;
#X obj 904 738 /~ 10;
#X obj 1124 738 /~ 10;
#X obj 904 762 outlet~;
#X obj 1124 762 outlet~;
#X obj 114 -21 s random.on-off;
#X obj 114 -70 loadbang;
#X msg 114 -46 1;
#X connect 0 0 1 0;
#X connect 1 0 203 0;
#X connect 2 0 3 0;
#X connect 3 0 204 0;
#X connect 4 0 5 0;
#X connect 5 0 205 0;
#X connect 6 0 7 0;
#X connect 7 0 206 0;
#X connect 8 0 9 0;
#X connect 9 0 207 0;
#X connect 10 0 11 0;
#X connect 11 0 62 0;
#X connect 12 0 13 0;
#X connect 13 0 208 0;
#X connect 14 0 15 0;
#X connect 15 0 209 0;
#X connect 16 0 17 0;
#X connect 17 0 210 0;
#X connect 18 0 19 0;
#X connect 19 0 266 0;
#X connect 20 0 18 1;
#X connect 21 0 16 1;
#X connect 22 0 14 1;
#X connect 23 0 12 1;
#X connect 24 0 10 1;
#X connect 25 0 8 1;
#X connect 26 0 6 1;
#X connect 27 0 4 1;
#X connect 28 0 2 1;
#X connect 29 0 0 1;
#X connect 30 0 106 0;
#X connect 31 0 30 0;
#X connect 32 0 33 0;
#X connect 33 0 211 0;
#X connect 34 0 35 0;
#X connect 35 0 212 0;
#X connect 36 0 37 0;
#X connect 37 0 213 0;
#X connect 38 0 39 0;
#X connect 39 0 214 0;
#X connect 40 0 41 0;
#X connect 41 0 215 0;
#X connect 42 0 43 0;
#X connect 43 0 216 0;
#X connect 44 0 45 0;
#X connect 45 0 217 0;
#X connect 46 0 47 0;
#X connect 47 0 218 0;
#X connect 48 0 49 0;
#X connect 49 0 219 0;
#X connect 50 0 51 0;
#X connect 51 0 220 0;
#X connect 52 0 50 1;
#X connect 53 0 48 1;
#X connect 54 0 46 1;
#X connect 55 0 44 1;
#X connect 56 0 42 1;
#X connect 57 0 40 1;
#X connect 58 0 38 1;
#X connect 59 0 36 1;
#X connect 60 0 34 1;
#X connect 61 0 32 1;
#X connect 63 0 30 1;
#X connect 63 0 107 1;
#X connect 64 0 0 0;
#X connect 65 0 2 0;
#X connect 66 0 4 0;
#X connect 67 0 6 0;
#X connect 68 0 8 0;
#X connect 69 0 10 0;
#X connect 70 0 12 0;
#X connect 71 0 14 0;
#X connect 72 0 16 0;
#X connect 73 0 18 0;
#X connect 74 0 32 0;
#X connect 75 0 34 0;
#X connect 76 0 36 0;
#X connect 77 0 38 0;
#X connect 78 0 40 0;
#X connect 79 0 42 0;
#X connect 80 0 44 0;
#X connect 81 0 46 0;
#X connect 82 0 48 0;
#X connect 83 0 50 0;
#X connect 84 0 85 0;
#X connect 86 0 64 0;
#X connect 87 0 65 0;
#X connect 88 0 66 0;
#X connect 89 0 67 0;
#X connect 90 0 68 0;
#X connect 91 0 69 0;
#X connect 92 0 70 0;
#X connect 93 0 71 0;
#X connect 94 0 72 0;
#X connect 95 0 73 0;
#X connect 96 0 74 0;
#X connect 97 0 75 0;
#X connect 98 0 76 0;
#X connect 99 0 77 0;
#X connect 100 0 78 0;
#X connect 101 0 79 0;
#X connect 102 0 80 0;
#X connect 103 0 81 0;
#X connect 104 0 82 0;
#X connect 105 0 83 0;
#X connect 106 0 107 0;
#X connect 107 0 1 1;
#X connect 108 0 109 0;
#X connect 109 0 110 0;
#X connect 110 0 3 1;
#X connect 111 0 108 1;
#X connect 111 0 110 1;
#X connect 112 0 113 0;
#X connect 113 0 114 0;
#X connect 114 0 5 1;
#X connect 115 0 116 0;
#X connect 116 0 117 0;
#X connect 117 0 7 1;
#X connect 118 0 119 0;
#X connect 119 0 120 0;
#X connect 120 0 9 1;
#X connect 121 0 122 0;
#X connect 122 0 123 0;
#X connect 123 0 11 1;
#X connect 124 0 125 0;
#X connect 125 0 126 0;
#X connect 126 0 13 1;
#X connect 127 0 128 0;
#X connect 128 0 129 0;
#X connect 129 0 15 1;
#X connect 130 0 131 0;
#X connect 131 0 132 0;
#X connect 132 0 17 1;
#X connect 133 0 134 0;
#X connect 134 0 135 0;
#X connect 135 0 19 1;
#X connect 136 0 137 0;
#X connect 137 0 138 0;
#X connect 138 0 33 1;
#X connect 139 0 140 0;
#X connect 140 0 141 0;
#X connect 141 0 35 1;
#X connect 142 0 143 0;
#X connect 143 0 144 0;
#X connect 144 0 37 1;
#X connect 145 0 146 0;
#X connect 146 0 147 0;
#X connect 147 0 39 1;
#X connect 148 0 149 0;
#X connect 149 0 150 0;
#X connect 150 0 41 1;
#X connect 151 0 152 0;
#X connect 152 0 153 0;
#X connect 153 0 43 1;
#X connect 154 0 155 0;
#X connect 155 0 156 0;
#X connect 156 0 45 1;
#X connect 157 0 158 0;
#X connect 158 0 159 0;
#X connect 159 0 47 1;
#X connect 160 0 161 0;
#X connect 161 0 162 0;
#X connect 162 0 49 1;
#X connect 163 0 165 0;
#X connect 164 0 163 1;
#X connect 164 0 166 1;
#X connect 165 0 166 0;
#X connect 166 0 51 1;
#X connect 167 0 108 0;
#X connect 168 0 112 0;
#X connect 169 0 115 0;
#X connect 170 0 118 0;
#X connect 171 0 121 0;
#X connect 172 0 124 0;
#X connect 173 0 127 0;
#X connect 174 0 130 0;
#X connect 175 0 133 0;
#X connect 176 0 136 0;
#X connect 177 0 139 0;
#X connect 178 0 142 0;
#X connect 179 0 145 0;
#X connect 180 0 148 0;
#X connect 181 0 151 0;
#X connect 182 0 154 0;
#X connect 183 0 157 0;
#X connect 184 0 160 0;
#X connect 185 0 163 0;
#X connect 186 0 112 1;
#X connect 186 0 114 1;
#X connect 187 0 115 1;
#X connect 187 0 117 1;
#X connect 188 0 118 1;
#X connect 188 0 120 1;
#X connect 189 0 121 1;
#X connect 189 0 123 1;
#X connect 190 0 124 1;
#X connect 190 0 126 1;
#X connect 191 0 127 1;
#X connect 191 0 129 1;
#X connect 192 0 130 1;
#X connect 192 0 132 1;
#X connect 193 0 133 1;
#X connect 193 0 135 1;
#X connect 194 0 136 1;
#X connect 194 0 138 1;
#X connect 195 0 139 1;
#X connect 195 0 141 1;
#X connect 196 0 142 1;
#X connect 196 0 144 1;
#X connect 197 0 145 1;
#X connect 197 0 147 1;
#X connect 198 0 148 1;
#X connect 198 0 150 1;
#X connect 199 0 151 1;
#X connect 199 0 153 1;
#X connect 200 0 154 1;
#X connect 200 0 156 1;
#X connect 201 0 157 1;
#X connect 201 0 159 1;
#X connect 202 0 160 1;
#X connect 202 0 162 1;
#X connect 221 0 223 0;
#X connect 222 0 245 0;
#X connect 225 0 31 0;
#X connect 226 0 63 0;
#X connect 227 0 167 0;
#X connect 228 0 111 0;
#X connect 229 0 168 0;
#X connect 230 0 186 0;
#X connect 231 0 169 0;
#X connect 232 0 187 0;
#X connect 233 0 170 0;
#X connect 234 0 188 0;
#X connect 235 0 171 0;
#X connect 236 0 189 0;
#X connect 237 0 172 0;
#X connect 238 0 190 0;
#X connect 239 0 173 0;
#X connect 240 0 191 0;
#X connect 241 0 174 0;
#X connect 242 0 192 0;
#X connect 243 0 175 0;
#X connect 244 0 193 0;
#X connect 245 0 221 0;
#X connect 245 1 224 0;
#X connect 246 0 176 0;
#X connect 247 0 194 0;
#X connect 248 0 177 0;
#X connect 249 0 195 0;
#X connect 250 0 178 0;
#X connect 251 0 196 0;
#X connect 252 0 179 0;
#X connect 253 0 197 0;
#X connect 254 0 180 0;
#X connect 255 0 198 0;
#X connect 256 0 181 0;
#X connect 257 0 199 0;
#X connect 258 0 182 0;
#X connect 259 0 200 0;
#X connect 260 0 183 0;
#X connect 261 0 201 0;
#X connect 262 0 184 0;
#X connect 263 0 202 0;
#X connect 264 0 185 0;
#X connect 265 0 164 0;
#X connect 267 0 269 0;
#X connect 268 0 270 0;
#X connect 269 0 271 0;
#X connect 270 0 272 0;
#X connect 274 0 275 0;
#X connect 275 0 273 0;
