#N canvas 0 23 1280 668 12;
#X obj 24 136 osc~;
#X obj 24 220 *~;
#X obj 244 136 osc~;
#X obj 244 220 *~;
#X obj 464 136 osc~;
#X obj 464 220 *~;
#X obj 684 136 osc~;
#X obj 684 220 *~;
#X obj 904 136 osc~;
#X obj 904 220 *~;
#X obj 1124 136 osc~;
#X obj 1124 220 *~;
#X obj 1344 136 osc~;
#X obj 1344 220 *~;
#X obj 1564 136 osc~;
#X obj 1564 220 *~;
#X obj 1784 136 osc~;
#X obj 1784 220 *~;
#X obj 2011 136 osc~;
#X obj 2011 220 *~;
#X obj 2036 103 r ph;
#X obj 1809 103 r ph;
#X obj 1589 103 r ph;
#X obj 1369 103 r ph;
#X obj 1149 103 r ph;
#X obj 929 103 r ph;
#X obj 709 103 r ph;
#X obj 489 103 r ph;
#X obj 269 103 r ph;
#X obj 49 103 r ph;
#X obj 98 -26 random.abs;
#X obj 98 -77 r time;
#X obj 98 -53 / 1;
#X obj 165 -77 r limit;
#X obj 24 556 osc~;
#X obj 24 640 *~;
#X obj 244 556 osc~;
#X obj 244 640 *~;
#X obj 464 556 osc~;
#X obj 464 640 *~;
#X obj 684 556 osc~;
#X obj 684 640 *~;
#X obj 904 556 osc~;
#X obj 904 640 *~;
#X obj 1124 556 osc~;
#X obj 1124 640 *~;
#X obj 1344 556 osc~;
#X obj 1344 640 *~;
#X obj 1564 556 osc~;
#X obj 1564 640 *~;
#X obj 1784 556 osc~;
#X obj 1784 640 *~;
#X obj 2011 556 osc~;
#X obj 2011 640 *~;
#X obj 2036 523 r ph;
#X obj 1809 523 r ph;
#X obj 1589 523 r ph;
#X obj 1369 523 r ph;
#X obj 1149 523 r ph;
#X obj 929 523 r ph;
#X obj 709 523 r ph;
#X obj 489 523 r ph;
#X obj 269 523 r ph;
#X obj 49 523 r ph;
#X obj 165 -53 1.7;
#X obj 24 75 * 1;
#X obj 244 75 * 2;
#X obj 464 75 * 3;
#X obj 684 75 * 4;
#X obj 904 75 * 5;
#X obj 1124 75 * 6;
#X obj 1344 75 * 7;
#X obj 1564 75 * 8;
#X obj 1784 75 * 9;
#X obj 2011 75 * 10;
#X obj 24 495 * 11;
#X obj 244 495 * 12;
#X obj 464 495 * 13;
#X obj 684 495 * 14;
#X obj 904 495 * 15;
#X obj 1124 495 * 16;
#X obj 1344 495 * 17;
#X obj 1564 495 * 18;
#X obj 1784 495 * 19;
#X obj 2011 495 * 20;
#X obj 24 -166 inlet;
#X obj 24 -141 s \$0-freq;
#X obj 24 39 r \$0-freq;
#X obj 244 39 r \$0-freq;
#X obj 464 39 r \$0-freq;
#X obj 684 39 r \$0-freq;
#X obj 904 39 r \$0-freq;
#X obj 1124 39 r \$0-freq;
#X obj 1344 39 r \$0-freq;
#X obj 1564 39 r \$0-freq;
#X obj 1784 39 r \$0-freq;
#X obj 2011 39 r \$0freq;
#X obj 24 459 r \$0-freq;
#X obj 244 459 r \$0-freq;
#X obj 464 459 r \$0-freq;
#X obj 684 459 r \$0-freq;
#X obj 904 459 r \$0-freq;
#X obj 1124 459 r \$0-freq;
#X obj 1344 459 r \$0-freq;
#X obj 1564 459 r \$0-freq;
#X obj 1784 459 r \$0-freq;
#X obj 2011 459 r \$0-freq;
#X obj 98 -2 osc~;
#X obj 24 99 *~;
#X obj 244 99 *~;
#X obj 98 22 expr~ (($v1 + 1) / 4) + 0.5, f 17;
#X obj 98 80 *~;
#X obj 134 61 0.1;
#X obj 318 -26 random.abs;
#X obj 318 -77 r time;
#X obj 385 -77 r limit;
#X obj 318 -2 osc~;
#X obj 318 22 expr~ (($v1 + 1) / 4) + 0.5, f 17;
#X obj 318 80 *~;
#X obj 354 61 0.1;
#X obj 538 -26 random.abs;
#X obj 538 -77 r time;
#X obj 605 -77 r limit;
#X obj 538 -2 osc~;
#X obj 538 22 expr~ (($v1 + 1) / 4) + 0.5, f 17;
#X obj 538 80 *~;
#X obj 574 61 0.1;
#X obj 464 99 *~;
#X obj 684 99 *~;
#X obj 904 99 *~;
#X obj 1124 99 *~;
#X obj 1344 99 *~;
#X obj 1564 99 *~;
#X obj 1784 99 *~;
#X obj 2011 99 *~;
#X obj 24 519 *~;
#X obj 244 519 *~;
#X obj 464 519 *~;
#X obj 684 519 *~;
#X obj 904 519 *~;
#X obj 1124 519 *~;
#X obj 1344 519 *~;
#X obj 1564 519 *~;
#X obj 1784 519 *~;
#X obj 2011 519 *~;
#X obj 758 -26 random.abs;
#X obj 758 -77 r time;
#X obj 825 -77 r limit;
#X obj 758 -2 osc~;
#X obj 758 22 expr~ (($v1 + 1) / 4) + 0.5, f 17;
#X obj 758 80 *~;
#X obj 978 -26 random.abs;
#X obj 978 -77 r time;
#X obj 1045 -77 r limit;
#X obj 978 -2 osc~;
#X obj 978 22 expr~ (($v1 + 1) / 4) + 0.5, f 17;
#X obj 978 80 *~;
#X obj 1197 -26 random.abs;
#X obj 1197 -77 r time;
#X obj 1264 -77 r limit;
#X obj 1197 -2 osc~;
#X obj 1197 22 expr~ (($v1 + 1) / 4) + 0.5, f 17;
#X obj 1197 80 *~;
#X obj 1417 -26 random.abs;
#X obj 1417 -77 r time;
#X obj 1484 -77 r limit;
#X obj 1417 -2 osc~;
#X obj 1417 22 expr~ (($v1 + 1) / 4) + 0.5, f 17;
#X obj 1417 80 *~;
#X obj 1637 -26 random.abs;
#X obj 1637 -77 r time;
#X obj 1704 -77 r limit;
#X obj 1637 -2 osc~;
#X obj 1637 22 expr~ (($v1 + 1) / 4) + 0.5, f 17;
#X obj 1637 80 *~;
#X obj 1857 -26 random.abs;
#X obj 1857 -77 r time;
#X obj 1924 -77 r limit;
#X obj 1857 -2 osc~;
#X obj 1857 22 expr~ (($v1 + 1) / 4) + 0.5, f 17;
#X obj 1857 80 *~;
#X obj 2077 -26 random.abs;
#X obj 2077 -77 r time;
#X obj 2144 -77 r limit;
#X obj 2077 -2 osc~;
#X obj 2077 22 expr~ (($v1 + 1) / 4) + 0.5, f 17;
#X obj 2077 80 *~;
#X obj 98 394 random.abs;
#X obj 98 343 r time;
#X obj 165 343 r limit;
#X obj 98 418 osc~;
#X obj 98 442 expr~ (($v1 + 1) / 4) + 0.5, f 17;
#X obj 98 500 *~;
#X obj 318 394 random.abs;
#X obj 318 343 r time;
#X obj 385 343 r limit;
#X obj 318 418 osc~;
#X obj 318 442 expr~ (($v1 + 1) / 4) + 0.5, f 17;
#X obj 318 500 *~;
#X obj 538 394 random.abs;
#X obj 538 343 r time;
#X obj 605 343 r limit;
#X obj 538 418 osc~;
#X obj 538 442 expr~ (($v1 + 1) / 4) + 0.5, f 17;
#X obj 538 500 *~;
#X obj 758 394 random.abs;
#X obj 758 343 r time;
#X obj 825 343 r limit;
#X obj 758 418 osc~;
#X obj 758 442 expr~ (($v1 + 1) / 4) + 0.5, f 17;
#X obj 758 500 *~;
#X obj 978 394 random.abs;
#X obj 978 343 r time;
#X obj 1045 343 r limit;
#X obj 978 418 osc~;
#X obj 978 442 expr~ (($v1 + 1) / 4) + 0.5, f 17;
#X obj 978 500 *~;
#X obj 1208 394 random.abs;
#X obj 1208 343 r time;
#X obj 1275 343 r limit;
#X obj 1208 418 osc~;
#X obj 1208 442 expr~ (($v1 + 1) / 4) + 0.5, f 17;
#X obj 1208 500 *~;
#X obj 1418 394 random.abs;
#X obj 1418 343 r time;
#X obj 1485 343 r limit;
#X obj 1418 418 osc~;
#X obj 1418 442 expr~ (($v1 + 1) / 4) + 0.5, f 17;
#X obj 1418 500 *~;
#X obj 1638 394 random.abs;
#X obj 1638 343 r time;
#X obj 1705 343 r limit;
#X obj 1638 418 osc~;
#X obj 1638 442 expr~ (($v1 + 1) / 4) + 0.5, f 17;
#X obj 1638 500 *~;
#X obj 1858 394 random.abs;
#X obj 1858 343 r time;
#X obj 1925 343 r limit;
#X obj 1858 418 osc~;
#X obj 1858 442 expr~ (($v1 + 1) / 4) + 0.5, f 17;
#X obj 1858 500 *~;
#X obj 1894 481 0.1;
#X obj 2088 394 random.abs;
#X obj 2088 343 r time;
#X obj 2155 343 r limit;
#X obj 2155 367 1.7;
#X obj 2088 418 osc~;
#X obj 2088 442 expr~ (($v1 + 1) / 4) + 0.5, f 17;
#X obj 2088 500 *~;
#X obj 2124 481 0.1;
#X obj 385 -53 1.6;
#X obj 605 -53 1.5;
#X obj 825 -53 1.4;
#X obj 1045 -53 1.3;
#X obj 1264 -53 1.2;
#X obj 1484 -53 1.1;
#X obj 1704 -53 1;
#X obj 1924 -53 1;
#X obj 2144 -53 1;
#X obj 165 367 1;
#X obj 385 367 1;
#X obj 605 367 1;
#X obj 825 367 1.1;
#X obj 1045 367 1.2;
#X obj 1275 367 1.3;
#X obj 1485 367 1.4;
#X obj 1705 367 1.5;
#X obj 1925 367 1.6;
#X obj 318 -53 / 1.1;
#X obj 538 -53 / 1.2;
#X obj 758 -53 / 1.3;
#X obj 978 -53 / 1.4;
#X obj 1197 -53 / 1.5;
#X obj 1417 -53 / 1.6;
#X obj 1637 -53 / 1.7;
#X obj 1857 -53 / 1.8;
#X obj 2077 -53 / 1.9;
#X obj 98 367 / 2;
#X obj 318 367 / 2;
#X obj 538 367 / 2;
#X obj 758 367 / 2;
#X obj 978 367 / 2;
#X obj 1208 367 / 2;
#X obj 1418 367 / 2;
#X obj 1638 367 / 2;
#X obj 1858 367 / 2;
#X obj 2088 367 / 2;
#X obj 794 61 0.2;
#X obj 1014 61 0.2;
#X obj 1233 61 0.2;
#X obj 1453 61 0.3;
#X obj 1673 61 0.3;
#X obj 1893 61 0.3;
#X obj 2113 61 0.4;
#X obj 134 481 0.4;
#X obj 354 481 0.4;
#X obj 574 481 0.3;
#X obj 794 481 0.3;
#X obj 1014 481 0.3;
#X obj 1244 481 0.2;
#X obj 1454 481 0.2;
#X obj 1674 481 0.2;
#X obj 88 201 random.abs;
#X obj 88 150 r time;
#X obj 88 174 / 1;
#X obj 155 150 r limit;
#X obj 155 174 1.7;
#X obj 308 201 random.abs;
#X obj 308 150 r time;
#X obj 375 150 r limit;
#X obj 528 201 random.abs;
#X obj 528 150 r time;
#X obj 595 150 r limit;
#X obj 748 201 random.abs;
#X obj 748 150 r time;
#X obj 815 150 r limit;
#X obj 968 201 random.abs;
#X obj 968 150 r time;
#X obj 1035 150 r limit;
#X obj 1188 201 random.abs;
#X obj 1188 150 r time;
#X obj 1255 150 r limit;
#X obj 1408 201 random.abs;
#X obj 1408 150 r time;
#X obj 1475 150 r limit;
#X obj 1628 201 random.abs;
#X obj 1628 150 r time;
#X obj 1695 150 r limit;
#X obj 88 621 random.abs;
#X obj 88 570 r time;
#X obj 155 570 r limit;
#X obj 308 621 random.abs;
#X obj 308 570 r time;
#X obj 375 570 r limit;
#X obj 528 621 random.abs;
#X obj 528 570 r time;
#X obj 595 570 r limit;
#X obj 748 621 random.abs;
#X obj 748 570 r time;
#X obj 815 570 r limit;
#X obj 968 621 random.abs;
#X obj 968 570 r time;
#X obj 1035 570 r limit;
#X obj 1188 621 random.abs;
#X obj 1188 570 r time;
#X obj 1255 570 r limit;
#X obj 1388 621 random.abs;
#X obj 1388 570 r time;
#X obj 1455 570 r limit;
#X obj 1628 621 random.abs;
#X obj 1628 570 r time;
#X obj 1695 570 r limit;
#X obj 1848 201 random.abs;
#X obj 1848 150 r time;
#X obj 1915 150 r limit;
#X obj 2078 201 random.abs;
#X obj 2078 150 r time;
#X obj 2145 150 r limit;
#X obj 1848 621 random.abs;
#X obj 1848 570 r time;
#X obj 1915 570 r limit;
#X obj 2078 621 random.abs;
#X obj 2078 570 r time;
#X obj 2145 570 r limit;
#X obj 2145 594 1.7;
#X obj 308 174 / 1.1;
#X obj 528 174 / 1.2;
#X obj 748 174 / 1.3;
#X obj 968 174 / 1.4;
#X obj 1188 174 / 1.5;
#X obj 1408 174 / 1.6;
#X obj 1628 174 / 1.7;
#X obj 1848 174 / 1.8;
#X obj 2078 174 / 1.9;
#X obj 88 594 / 2;
#X obj 308 594 / 2;
#X obj 528 594 / 2;
#X obj 748 594 / 2;
#X obj 968 594 / 2;
#X obj 1188 594 / 2;
#X obj 1388 594 / 2;
#X obj 1628 594 / 2;
#X obj 1848 594 / 2;
#X obj 2078 594 / 2;
#X obj 375 174 1.6;
#X obj 595 174 1.5;
#X obj 815 174 1.4;
#X obj 1035 174 1.3;
#X obj 1255 174 1.2;
#X obj 1475 174 1.1;
#X obj 1695 174 1;
#X obj 1915 174 1;
#X obj 2145 174 1;
#X obj 155 594 1;
#X obj 375 594 1;
#X obj 595 594 1;
#X obj 815 594 1.1;
#X obj 1035 594 1.2;
#X obj 1255 594 1.3;
#X obj 1455 594 1.4;
#X obj 1695 594 1.5;
#X obj 1915 594 1.6;
#X obj 24 244 throw~ \$0-sig.a;
#X obj 244 244 throw~ \$0-sig.b;
#X obj 464 244 throw~ \$0-sig.a;
#X obj 684 244 throw~ \$0-sig.b;
#X obj 904 244 throw~ \$0-sig.a;
#X obj 1124 244 throw~ \$0-sig.b;
#X obj 1344 244 throw~ \$0-sig.a;
#X obj 1564 244 throw~ \$0-sig.b;
#X obj 1784 244 throw~ \$0-sig.a;
#X obj 2011 244 throw~ \$0-sig.b;
#X obj 24 664 throw~ \$0-sig.a;
#X obj 244 664 throw~ \$0-sig.b;
#X obj 464 664 throw~ \$0-sig.a;
#X obj 684 664 throw~ \$0-sig.b;
#X obj 904 664 throw~ \$0-sig.a;
#X obj 1124 664 throw~ \$0-sig.b;
#X obj 1344 664 throw~ \$0-sig.a;
#X obj 1564 664 throw~ \$0-sig.b;
#X obj 1784 664 throw~ \$0-sig.a;
#X obj 2011 664 throw~ \$0-sig.b;
#X obj 904 784 catch~ \$0-sig.a;
#X obj 1124 784 catch~ \$0-sig.b;
#X obj 904 808 /~ 10;
#X obj 1124 808 /~ 10;
#X obj 904 832 outlet~;
#X obj 1124 832 outlet~;
#X obj 124 -141 s random.on-off;
#X obj 124 -190 loadbang;
#X msg 124 -166 1;
#X connect 0 0 1 0;
#X connect 1 0 402 0;
#X connect 2 0 3 0;
#X connect 3 0 403 0;
#X connect 4 0 5 0;
#X connect 5 0 404 0;
#X connect 6 0 7 0;
#X connect 7 0 405 0;
#X connect 8 0 9 0;
#X connect 9 0 406 0;
#X connect 10 0 11 0;
#X connect 11 0 407 0;
#X connect 12 0 13 0;
#X connect 13 0 408 0;
#X connect 14 0 15 0;
#X connect 15 0 409 0;
#X connect 16 0 17 0;
#X connect 17 0 410 0;
#X connect 18 0 19 0;
#X connect 19 0 411 0;
#X connect 20 0 18 1;
#X connect 21 0 16 1;
#X connect 22 0 14 1;
#X connect 23 0 12 1;
#X connect 24 0 10 1;
#X connect 25 0 8 1;
#X connect 26 0 6 1;
#X connect 27 0 4 1;
#X connect 28 0 2 1;
#X connect 29 0 0 1;
#X connect 30 0 107 0;
#X connect 31 0 32 0;
#X connect 31 0 112 0;
#X connect 32 0 30 0;
#X connect 33 0 64 0;
#X connect 34 0 35 0;
#X connect 35 0 412 0;
#X connect 36 0 37 0;
#X connect 37 0 413 0;
#X connect 38 0 39 0;
#X connect 39 0 414 0;
#X connect 40 0 41 0;
#X connect 41 0 415 0;
#X connect 42 0 43 0;
#X connect 43 0 416 0;
#X connect 44 0 45 0;
#X connect 45 0 417 0;
#X connect 46 0 47 0;
#X connect 47 0 418 0;
#X connect 48 0 49 0;
#X connect 49 0 419 0;
#X connect 50 0 51 0;
#X connect 51 0 420 0;
#X connect 52 0 53 0;
#X connect 53 0 421 0;
#X connect 54 0 52 1;
#X connect 55 0 50 1;
#X connect 56 0 48 1;
#X connect 57 0 46 1;
#X connect 58 0 44 1;
#X connect 59 0 42 1;
#X connect 60 0 40 1;
#X connect 61 0 38 1;
#X connect 62 0 36 1;
#X connect 63 0 34 1;
#X connect 64 0 30 1;
#X connect 65 0 108 0;
#X connect 66 0 109 0;
#X connect 67 0 127 0;
#X connect 68 0 128 0;
#X connect 69 0 129 0;
#X connect 70 0 130 0;
#X connect 71 0 131 0;
#X connect 72 0 132 0;
#X connect 73 0 133 0;
#X connect 74 0 134 0;
#X connect 75 0 135 0;
#X connect 76 0 136 0;
#X connect 77 0 137 0;
#X connect 78 0 138 0;
#X connect 79 0 139 0;
#X connect 80 0 140 0;
#X connect 81 0 141 0;
#X connect 82 0 142 0;
#X connect 83 0 143 0;
#X connect 84 0 144 0;
#X connect 85 0 86 0;
#X connect 87 0 65 0;
#X connect 88 0 66 0;
#X connect 89 0 67 0;
#X connect 90 0 68 0;
#X connect 91 0 69 0;
#X connect 92 0 70 0;
#X connect 93 0 71 0;
#X connect 94 0 72 0;
#X connect 95 0 73 0;
#X connect 96 0 74 0;
#X connect 97 0 75 0;
#X connect 98 0 76 0;
#X connect 99 0 77 0;
#X connect 100 0 78 0;
#X connect 101 0 79 0;
#X connect 102 0 80 0;
#X connect 103 0 81 0;
#X connect 104 0 82 0;
#X connect 105 0 83 0;
#X connect 106 0 84 0;
#X connect 107 0 110 0;
#X connect 108 0 0 0;
#X connect 109 0 2 0;
#X connect 110 0 111 0;
#X connect 111 0 108 1;
#X connect 112 0 111 1;
#X connect 113 0 116 0;
#X connect 114 0 268 0;
#X connect 114 0 119 0;
#X connect 115 0 250 0;
#X connect 116 0 117 0;
#X connect 117 0 118 0;
#X connect 118 0 109 1;
#X connect 119 0 118 1;
#X connect 120 0 123 0;
#X connect 121 0 269 0;
#X connect 121 0 126 0;
#X connect 122 0 251 0;
#X connect 123 0 124 0;
#X connect 124 0 125 0;
#X connect 125 0 127 1;
#X connect 126 0 125 1;
#X connect 127 0 4 0;
#X connect 128 0 6 0;
#X connect 129 0 8 0;
#X connect 130 0 10 0;
#X connect 131 0 12 0;
#X connect 132 0 14 0;
#X connect 133 0 16 0;
#X connect 134 0 18 0;
#X connect 135 0 34 0;
#X connect 136 0 36 0;
#X connect 137 0 38 0;
#X connect 138 0 40 0;
#X connect 139 0 42 0;
#X connect 140 0 44 0;
#X connect 141 0 46 0;
#X connect 142 0 48 0;
#X connect 143 0 50 0;
#X connect 144 0 52 0;
#X connect 145 0 148 0;
#X connect 146 0 270 0;
#X connect 146 0 287 0;
#X connect 147 0 252 0;
#X connect 148 0 149 0;
#X connect 149 0 150 0;
#X connect 150 0 128 1;
#X connect 151 0 154 0;
#X connect 152 0 271 0;
#X connect 152 0 288 0;
#X connect 153 0 253 0;
#X connect 154 0 155 0;
#X connect 155 0 156 0;
#X connect 156 0 129 1;
#X connect 157 0 160 0;
#X connect 158 0 272 0;
#X connect 158 0 289 0;
#X connect 159 0 254 0;
#X connect 160 0 161 0;
#X connect 161 0 162 0;
#X connect 162 0 130 1;
#X connect 163 0 166 0;
#X connect 164 0 273 0;
#X connect 164 0 290 0;
#X connect 165 0 255 0;
#X connect 166 0 167 0;
#X connect 167 0 168 0;
#X connect 168 0 131 1;
#X connect 169 0 172 0;
#X connect 170 0 274 0;
#X connect 170 0 291 0;
#X connect 171 0 256 0;
#X connect 172 0 173 0;
#X connect 173 0 174 0;
#X connect 174 0 132 1;
#X connect 175 0 178 0;
#X connect 176 0 275 0;
#X connect 176 0 292 0;
#X connect 177 0 257 0;
#X connect 178 0 179 0;
#X connect 179 0 180 0;
#X connect 180 0 133 1;
#X connect 181 0 184 0;
#X connect 182 0 276 0;
#X connect 182 0 293 0;
#X connect 183 0 258 0;
#X connect 184 0 185 0;
#X connect 185 0 186 0;
#X connect 186 0 134 1;
#X connect 187 0 190 0;
#X connect 188 0 277 0;
#X connect 188 0 294 0;
#X connect 189 0 259 0;
#X connect 190 0 191 0;
#X connect 191 0 192 0;
#X connect 192 0 135 1;
#X connect 193 0 196 0;
#X connect 194 0 278 0;
#X connect 194 0 295 0;
#X connect 195 0 260 0;
#X connect 196 0 197 0;
#X connect 197 0 198 0;
#X connect 198 0 136 1;
#X connect 199 0 202 0;
#X connect 200 0 279 0;
#X connect 200 0 296 0;
#X connect 201 0 261 0;
#X connect 202 0 203 0;
#X connect 203 0 204 0;
#X connect 204 0 137 1;
#X connect 205 0 208 0;
#X connect 206 0 280 0;
#X connect 206 0 297 0;
#X connect 207 0 262 0;
#X connect 208 0 209 0;
#X connect 209 0 210 0;
#X connect 210 0 138 1;
#X connect 211 0 214 0;
#X connect 212 0 281 0;
#X connect 212 0 298 0;
#X connect 213 0 263 0;
#X connect 214 0 215 0;
#X connect 215 0 216 0;
#X connect 216 0 139 1;
#X connect 217 0 220 0;
#X connect 218 0 282 0;
#X connect 218 0 299 0;
#X connect 219 0 264 0;
#X connect 220 0 221 0;
#X connect 221 0 222 0;
#X connect 222 0 140 1;
#X connect 223 0 226 0;
#X connect 224 0 283 0;
#X connect 224 0 300 0;
#X connect 225 0 265 0;
#X connect 226 0 227 0;
#X connect 227 0 228 0;
#X connect 228 0 141 1;
#X connect 229 0 232 0;
#X connect 230 0 284 0;
#X connect 230 0 301 0;
#X connect 231 0 266 0;
#X connect 232 0 233 0;
#X connect 233 0 234 0;
#X connect 234 0 142 1;
#X connect 235 0 238 0;
#X connect 236 0 285 0;
#X connect 236 0 241 0;
#X connect 237 0 267 0;
#X connect 238 0 239 0;
#X connect 239 0 240 0;
#X connect 240 0 143 1;
#X connect 241 0 240 1;
#X connect 242 0 246 0;
#X connect 243 0 286 0;
#X connect 243 0 249 0;
#X connect 244 0 245 0;
#X connect 245 0 242 1;
#X connect 246 0 247 0;
#X connect 247 0 248 0;
#X connect 248 0 144 1;
#X connect 249 0 248 1;
#X connect 250 0 113 1;
#X connect 251 0 120 1;
#X connect 252 0 145 1;
#X connect 253 0 151 1;
#X connect 254 0 157 1;
#X connect 255 0 163 1;
#X connect 256 0 169 1;
#X connect 257 0 175 1;
#X connect 258 0 181 1;
#X connect 259 0 187 1;
#X connect 260 0 193 1;
#X connect 261 0 199 1;
#X connect 262 0 205 1;
#X connect 263 0 211 1;
#X connect 264 0 217 1;
#X connect 265 0 223 1;
#X connect 266 0 229 1;
#X connect 267 0 235 1;
#X connect 268 0 113 0;
#X connect 269 0 120 0;
#X connect 270 0 145 0;
#X connect 271 0 151 0;
#X connect 272 0 157 0;
#X connect 273 0 163 0;
#X connect 274 0 169 0;
#X connect 275 0 175 0;
#X connect 276 0 181 0;
#X connect 277 0 187 0;
#X connect 278 0 193 0;
#X connect 279 0 199 0;
#X connect 280 0 205 0;
#X connect 281 0 211 0;
#X connect 282 0 217 0;
#X connect 283 0 223 0;
#X connect 284 0 229 0;
#X connect 285 0 235 0;
#X connect 286 0 242 0;
#X connect 287 0 150 1;
#X connect 288 0 156 1;
#X connect 289 0 162 1;
#X connect 290 0 168 1;
#X connect 291 0 174 1;
#X connect 292 0 180 1;
#X connect 293 0 186 1;
#X connect 294 0 192 1;
#X connect 295 0 198 1;
#X connect 296 0 204 1;
#X connect 297 0 210 1;
#X connect 298 0 216 1;
#X connect 299 0 222 1;
#X connect 300 0 228 1;
#X connect 301 0 234 1;
#X connect 302 0 1 1;
#X connect 303 0 304 0;
#X connect 304 0 302 0;
#X connect 305 0 306 0;
#X connect 306 0 302 1;
#X connect 307 0 3 1;
#X connect 308 0 365 0;
#X connect 309 0 384 0;
#X connect 310 0 5 1;
#X connect 311 0 366 0;
#X connect 312 0 385 0;
#X connect 313 0 7 1;
#X connect 314 0 367 0;
#X connect 315 0 386 0;
#X connect 316 0 9 1;
#X connect 317 0 368 0;
#X connect 318 0 387 0;
#X connect 319 0 11 1;
#X connect 320 0 369 0;
#X connect 321 0 388 0;
#X connect 322 0 13 1;
#X connect 323 0 370 0;
#X connect 324 0 389 0;
#X connect 325 0 15 1;
#X connect 326 0 371 0;
#X connect 327 0 390 0;
#X connect 328 0 35 1;
#X connect 329 0 374 0;
#X connect 330 0 393 0;
#X connect 331 0 37 1;
#X connect 332 0 375 0;
#X connect 333 0 394 0;
#X connect 334 0 39 1;
#X connect 335 0 376 0;
#X connect 336 0 395 0;
#X connect 337 0 41 1;
#X connect 338 0 377 0;
#X connect 339 0 396 0;
#X connect 340 0 43 1;
#X connect 341 0 378 0;
#X connect 342 0 397 0;
#X connect 343 0 45 1;
#X connect 344 0 379 0;
#X connect 345 0 398 0;
#X connect 346 0 47 1;
#X connect 347 0 380 0;
#X connect 348 0 399 0;
#X connect 349 0 49 1;
#X connect 350 0 381 0;
#X connect 351 0 400 0;
#X connect 352 0 17 1;
#X connect 353 0 372 0;
#X connect 354 0 391 0;
#X connect 355 0 19 1;
#X connect 356 0 373 0;
#X connect 357 0 392 0;
#X connect 358 0 51 1;
#X connect 359 0 382 0;
#X connect 360 0 401 0;
#X connect 361 0 53 1;
#X connect 362 0 383 0;
#X connect 363 0 364 0;
#X connect 364 0 361 1;
#X connect 365 0 307 0;
#X connect 366 0 310 0;
#X connect 367 0 313 0;
#X connect 368 0 316 0;
#X connect 369 0 319 0;
#X connect 370 0 322 0;
#X connect 371 0 325 0;
#X connect 372 0 352 0;
#X connect 373 0 355 0;
#X connect 374 0 328 0;
#X connect 375 0 331 0;
#X connect 376 0 334 0;
#X connect 377 0 337 0;
#X connect 378 0 340 0;
#X connect 379 0 343 0;
#X connect 380 0 346 0;
#X connect 381 0 349 0;
#X connect 382 0 358 0;
#X connect 383 0 361 0;
#X connect 384 0 307 1;
#X connect 385 0 310 1;
#X connect 386 0 313 1;
#X connect 387 0 316 1;
#X connect 388 0 319 1;
#X connect 389 0 322 1;
#X connect 390 0 325 1;
#X connect 391 0 352 1;
#X connect 392 0 355 1;
#X connect 393 0 328 1;
#X connect 394 0 331 1;
#X connect 395 0 334 1;
#X connect 396 0 337 1;
#X connect 397 0 340 1;
#X connect 398 0 343 1;
#X connect 399 0 346 1;
#X connect 400 0 349 1;
#X connect 401 0 358 1;
#X connect 422 0 424 0;
#X connect 423 0 425 0;
#X connect 424 0 426 0;
#X connect 425 0 427 0;
#X connect 429 0 430 0;
#X connect 430 0 428 0;
