#N canvas 0 0 958 988 12;
#X declare -path .;
#X obj 45 48 declare -path .;
#X obj 275 157 osc1~, f 14;
#X obj 275 48 cnv 19 126 76 empty empty empty 20 12 0 12 #e0e0e0 #404040 0;
#X obj 98 135 nbx 4 17 0 1e+37 0 0 \$0-osc1_freq \$0-osc1_freq_init freq 55 10 0 12 #fcfcfc #000000 #000000 0 256;
#X obj 275 135 r \$0-osc1_freq;
#X obj 274 225 throw~ \$0-signal_out_L;
#X obj 369 203 throw~ \$0-signal_out_R;
#X obj 275 181 *~;
#X obj 369 181 *~;
#X obj 467 138 r \$0-osc1_amp;
#X obj 467 162 ramp~ 50;
#X obj 68 137 vsl 20 52 0 1 0 0 \$0-osc1_amp empty osc1~ 0 -15 0 18 #feffc6 #000000 #000000 0 1;
#X obj 274 594 catch~ \$0-signal_out_L;
#X obj 439 594 catch~ \$0-signal_out_R;
#X obj 98 235 nbx 4 17 -1e+37 1e+37 0 0 \$0-osc2_freq \$0-osc2_freq_init freq 55 10 0 12 #fcfcfc #000000 #000000 0 256;
#X obj 68 237 vsl 20 52 0 1 0 0 \$0-osc2_amp empty osc2~ 0 -15 0 18 #feffc6 #000000 #000000 0 1;
#X obj 274 416 throw~ \$0-signal_out_L;
#X obj 369 394 throw~ \$0-signal_out_R;
#X obj 275 372 *~;
#X obj 369 372 *~;
#X obj 467 353 ramp~ 50;
#X obj 275 263 r \$0-osc2_freq;
#X obj 467 329 r \$0-osc2_amp;
#X obj 275 348 osc2~, f 14;
#X obj 98 255 nbx 4 17 1 1e+37 0 0 \$0-osc2_harm_1 \$0-osc2_harm_1_init harm_1 55 10 0 12 #fcfcfc #000000 #000000 0 256;
#X obj 98 275 nbx 4 17 1 1e+37 0 0 \$0-osc2_harm_2 \$0-osc2_harm_2_init harm_2 55 10 0 12 #fcfcfc #000000 #000000 0 256;
#X obj 322 285 r \$0-osc2_harm_1;
#X obj 370 307 r \$0-osc2_harm_2;
#X obj 439 623 throw~ signal_out_R;
#X obj 274 623 throw~ signal_out_L;
#X obj 274 545 throw~ \$0-signal_out_L;
#X obj 369 523 throw~ \$0-signal_out_R;
#X obj 275 501 *~;
#X obj 369 501 *~;
#X obj 467 482 ramp~ 50;
#X obj 275 455 r \$0-osc4_freq;
#X obj 275 477 osc4~, f 14;
#X obj 467 458 r \$0-osc4_amp;
#X obj 98 335 nbx 4 17 0 1e+37 0 0 \$0-osc4_freq \$0-osc4_freq_init freq 55 10 0 12 #fcfcfc #000000 #000000 0 256;
#X obj 68 337 vsl 20 52 0 1 0 0 \$0-osc4_amp empty osc4~ 0 -15 0 18 #feffc6 #000000 #000000 0 1;
#X obj 45 545 loadbang;
#X msg 45 569 1;
#X obj 45 594 s \$0-osc2_harm_1_init;
#X obj 45 613 s \$0-osc2_harm_2_init;
#X connect 1 0 7 0;
#X connect 1 1 8 0;
#X connect 4 0 1 0;
#X connect 7 0 5 0;
#X connect 8 0 6 0;
#X connect 9 0 10 0;
#X connect 10 0 8 1;
#X connect 10 0 7 1;
#X connect 12 0 29 0;
#X connect 13 0 28 0;
#X connect 18 0 16 0;
#X connect 19 0 17 0;
#X connect 20 0 19 1;
#X connect 20 0 18 1;
#X connect 21 0 23 0;
#X connect 22 0 20 0;
#X connect 23 0 18 0;
#X connect 23 1 19 0;
#X connect 26 0 23 1;
#X connect 27 0 23 2;
#X connect 32 0 30 0;
#X connect 33 0 31 0;
#X connect 34 0 33 1;
#X connect 34 0 32 1;
#X connect 35 0 36 0;
#X connect 36 0 32 0;
#X connect 36 1 33 0;
#X connect 37 0 34 0;
#X connect 40 0 41 0;
#X connect 41 0 42 0;
#X connect 41 0 43 0;
#X coords 0 -1 1 1 180 400 2 45 100;
