#N struct 1150-point float x0 float y0 float xs float ys float fg float in float gridx float gridy;
#N canvas 234 234 1920 997 12;
#X declare -path .;
#X obj 748 143 slider2d 200 200 -1 1 0 1 1 255 255 255 0 0 0 0 0 0 0 0.19 empty empty;
#X obj 748 425 unpack f f, f 11;
#X floatatom 748 449 5 0 0 0 - - - 0;
#X floatatom 822 449 5 0 0 0 - - - 0;
#X obj 748 22 loadbang;
#X obj 700 -73 cnv 19 126 76 empty empty empty 20 12 0 12 #e0e0e0 #404040 0;
#X msg 748 105 size 200;
#X obj 747 359 nbx 6 20 -1e+37 1e+37 0 0 empty \$0-panning empty 0 -10 1 14 #dfdfdf #000000 #000000 0 256;
#X obj 871 359 nbx 6 20 -1e+37 1e+37 0 0 empty \$0-volume empty 0 -10 1 14 #dfdfdf #000000 #000000 0 256;
#X msg 748 45 xrange -1 1;
#X msg 748 74 yrange 0 1;
#X obj 748 502 s \$0-panning;
#X obj 822 472 s \$0-volume;
#X obj 262 143 r~ signal_processed_out;
#X obj 262 113 declare -path .;
#X obj 262 267 panning;
#X obj 262 234 *~;
#X obj 308 241 r \$0-panning;
#X obj 308 191 r \$0-volume;
#X obj 262 291 dac~, f 7;
#X obj 308 215 ramp~ 50;
#X obj 262 167 lop~ 10000;
#X connect 0 0 1 0;
#X connect 1 0 2 0;
#X connect 1 1 3 0;
#X connect 2 0 11 0;
#X connect 3 0 12 0;
#X connect 4 0 9 0;
#X connect 4 0 10 0;
#X connect 6 0 0 0;
#X connect 9 0 0 0;
#X connect 10 0 0 0;
#X connect 13 0 21 0;
#X connect 15 0 19 0;
#X connect 15 1 19 1;
#X connect 16 0 15 0;
#X connect 17 0 15 1;
#X connect 18 0 20 0;
#X connect 20 0 16 1;
#X connect 21 0 16 0;
#X coords 0 -1 1 1 300 300 1 700 100;
