#N canvas 208 208 1920 997 12;
#X obj 205 214 *~;
#X obj 293 210 *~;
#X obj 122 113 vsl 15 50 0 1 0 0 empty empty empty 0 -9 0 10 #fcfcc4 #000000 #000000 0 1;
#X msg 122 171 \$1 50;
#X obj 122 195 line~;
#X obj 205 275 clip~ -1 1;
#X obj 205 251 hip~ 100;
#X obj 362 109 vsl 15 50 0 1 0 0 empty empty empty 0 -9 0 10 #fcfcc4 #000000 #000000 0 1;
#X msg 362 167 \$1 50;
#X obj 362 191 line~;
#X obj 293 275 clip~ -1 1;
#X obj 293 251 hip~ 100;
#X obj 264 -25 hsl 100 15 0 3.1416 0 0 empty pan.cos empty -2 -8 0 10 #c4fcfc #000000 #000000 0 1;
#X obj 261 -5 cos;
#X obj 261 44 + 1;
#X obj 261 68 / 2;
#X obj 319 14 * -1;
#X obj 319 38 + 1;
#X obj 319 62 / 2;
#X obj 261 92 sqrt;
#X obj 319 88 sqrt;
#X obj 205 -132 inlet~;
#X obj 205 190 *~ 1, f 13;
#X obj 261 -132 inlet, f 6;
#X obj 205 299 outlet~;
#X obj 293 299 outlet~;
#X obj 261 -107 + 1;
#X obj 261 -82 / 2;
#X obj 261 -57 * 3.14159;
#X connect 0 0 6 0;
#X connect 1 0 11 0;
#X connect 2 0 3 0;
#X connect 3 0 4 0;
#X connect 4 0 0 1;
#X connect 5 0 24 0;
#X connect 6 0 5 0;
#X connect 7 0 8 0;
#X connect 8 0 9 0;
#X connect 9 0 1 1;
#X connect 10 0 25 0;
#X connect 11 0 10 0;
#X connect 12 0 13 0;
#X connect 13 0 14 0;
#X connect 13 0 16 0;
#X connect 14 0 15 0;
#X connect 15 0 19 0;
#X connect 16 0 17 0;
#X connect 17 0 18 0;
#X connect 18 0 20 0;
#X connect 19 0 2 0;
#X connect 20 0 7 0;
#X connect 21 0 22 0;
#X connect 22 0 0 0;
#X connect 22 0 1 0;
#X connect 23 0 26 0;
#X connect 26 0 27 0;
#X connect 27 0 28 0;
#X connect 28 0 12 0;
