#N struct 1034-point float x0 float y0 float xs float ys float fg float in float gridx float gridy;
#N struct 1047-point float x0 float y0 float xs float ys float fg float in float gridx float gridy;
#N canvas 4 44 1920 997 12;
#X declare -path .;
#X obj 358 183 phasor~;
#X obj 358 207 +~;
#X obj 358 231 cos~;
#X obj 498 183 phasor~;
#X obj 498 207 +~;
#X obj 498 231 cos~;
#X obj 498 255 *~;
#X obj 778 113 slider2d 150 150 0 100 0 5 1 255 255 255 0 0 0 0 0 0 0 0 empty empty;
#X obj 778 315 unpack f f, f 11;
#X floatatom 778 339 5 0 0 0 - - - 0;
#X floatatom 852 339 5 0 0 0 - - - 0;
#X obj 948 113 slider2d 150 150 0 100 0 5 1 255 255 255 0 0 0 0 0 0 0 0 empty empty;
#X obj 948 315 unpack f f, f 11;
#X floatatom 948 339 5 0 0 0 - - - 0;
#X floatatom 1022 339 5 0 0 0 - - - 0;
#X obj 778 -8 loadbang;
#X obj 948 -8 loadbang;
#X obj 778 362 s \$0-mod1;
#X obj 852 362 s \$0-mod2;
#X obj 948 362 s \$0-mod3;
#X obj 1022 362 s \$0-mod4;
#X obj 700 -103 cnv 19 126 76 empty empty empty 20 12 0 12 #e0e0e0 #404040 0;
#X obj 777 273 nbx 5 20 -1e+37 1e+37 0 0 empty \$0-mod1 empty 0 -10 1 14 #dfdfdf #000000 #000000 0 256;
#X obj 862 273 nbx 5 20 -1e+37 1e+37 0 0 empty \$0-mod2 empty 0 -10 1 14 #dfdfdf #000000 #000000 0 256;
#X obj 947 273 nbx 5 20 -1e+37 1e+37 0 0 empty \$0-mod3 empty 0 -10 1 14 #dfdfdf #000000 #000000 0 256;
#X obj 1032 273 nbx 5 20 -1e+37 1e+37 0 0 empty \$0-mod4 empty 0 -10 1 14 #dfdfdf #000000 #000000 0 256;
#X obj 218 183 phasor~;
#X obj 218 207 +~;
#X obj 218 231 cos~;
#X obj 358 255 *~;
#X obj 358 155 r \$0-mod1;
#X obj 415 213 r \$0-mod2;
#X obj 555 213 r \$0-mod4;
#X obj 498 155 r \$0-mod3;
#X obj 717 115 vsl 20 145 0 100 0 0 \$0-mod0 empty empty 0 -9 0 12 #feffc6 #000000 #000000 0 1;
#X obj 218 155 r \$0-mod0;
#X msg 778 15 xrange 0 100;
#X msg 948 15 xrange 0 100;
#X msg 778 44 yrange 0 5;
#X msg 948 45 yrange 0 5;
#X obj 218 125 declare -path .;
#X obj 555 237 ramp~ 50;
#X obj 415 237 ramp~ 50;
#X obj 717 273 nbx 3 20 -1e+37 1e+37 0 0 empty \$0-mod0 empty 0 -10 1 14 #ffffff #000000 #000000 0 256;
#X obj 218 299 outlet~;
#X msg 778 75 size 150;
#X msg 948 75 size 150;
#X connect 0 0 1 0;
#X connect 1 0 2 0;
#X connect 2 0 29 0;
#X connect 3 0 4 0;
#X connect 4 0 5 0;
#X connect 5 0 6 0;
#X connect 6 0 1 1;
#X connect 7 0 8 0;
#X connect 8 0 9 0;
#X connect 8 1 10 0;
#X connect 9 0 17 0;
#X connect 10 0 18 0;
#X connect 11 0 12 0;
#X connect 12 0 13 0;
#X connect 12 1 14 0;
#X connect 13 0 19 0;
#X connect 14 0 20 0;
#X connect 15 0 36 0;
#X connect 15 0 38 0;
#X connect 16 0 37 0;
#X connect 16 0 46 0;
#X connect 16 0 39 0;
#X connect 26 0 27 0;
#X connect 27 0 28 0;
#X connect 28 0 44 0;
#X connect 29 0 27 1;
#X connect 30 0 0 0;
#X connect 31 0 42 0;
#X connect 32 0 41 0;
#X connect 33 0 3 0;
#X connect 35 0 26 0;
#X connect 36 0 7 0;
#X connect 37 0 11 0;
#X connect 38 0 7 0;
#X connect 39 0 11 0;
#X connect 41 0 6 1;
#X connect 42 0 29 1;
#X connect 45 0 7 0;
#X connect 46 0 11 0;
#X coords 0 -1 1 1 420 200 2 700 100;
