#N struct 1034-point float x0 float y0 float xs float ys float fg float in float gridx float gridy;
#N struct 1047-point float x0 float y0 float xs float ys float fg float in float gridx float gridy;
#N canvas 1773 202 1920 997 12;
#X declare -path .;
#X obj 358 183 phasor~;
#X obj 358 207 +~;
#X obj 358 231 cos~;
#X obj 498 183 phasor~;
#X obj 498 207 +~;
#X obj 498 231 cos~;
#X obj 498 255 *~;
#X obj 808 143 slider2d 200 200 0 100 0 5 1 255 255 255 0 0 0 0 0 0 69.5 1.75 empty empty;
#X obj 808 425 unpack f f, f 11;
#X floatatom 808 449 5 0 0 0 - - - 0;
#X floatatom 882 449 5 0 0 0 - - - 0;
#X obj 1049 143 slider2d 200 200 0 100 0 5 1 255 255 255 0 0 0 0 0 0 45.5 2.95 empty empty;
#X obj 1049 425 unpack f f, f 11;
#X floatatom 1049 449 5 0 0 0 - - - 0;
#X floatatom 1123 449 5 0 0 0 - - - 0;
#X obj 808 22 loadbang;
#X obj 1049 22 loadbang;
#X obj 808 472 s \$0-mod1;
#X obj 882 472 s \$0-mod2;
#X obj 1049 472 s \$0-mod3;
#X obj 1123 472 s \$0-mod4;
#X obj 700 -73 cnv 19 126 76 empty empty empty 20 12 0 12 #e0e0e0 #404040 0;
#X msg 808 105 size 200;
#X msg 1049 105 size 200;
#X obj 807 359 nbx 6 20 -1e+37 1e+37 0 0 empty \$0-mod1 empty 0 -10 1 14 #dfdfdf #000000 #000000 0 256;
#X obj 931 359 nbx 6 20 -1e+37 1e+37 0 0 empty \$0-mod2 empty 0 -10 1 14 #dfdfdf #000000 #000000 0 256;
#X obj 1048 359 nbx 6 20 -1e+37 1e+37 0 0 empty \$0-mod3 empty 0 -10 1 14 #dfdfdf #000000 #000000 0 256;
#X obj 1172 359 nbx 6 20 -1e+37 1e+37 0 0 empty \$0-mod4 empty 0 -10 1 14 #dfdfdf #000000 #000000 0 256;
#X obj 218 183 phasor~;
#X obj 218 207 +~;
#X obj 218 231 cos~;
#X obj 358 255 *~;
#X obj 358 155 r \$0-mod1;
#X obj 415 213 r \$0-mod2;
#X obj 555 213 r \$0-mod4;
#X obj 498 155 r \$0-mod3;
#X obj 737 145 vsl 30 195 0 100 0 0 \$0-mod0 empty empty 0 -9 0 12 #feffc6 #000000 #000000 0 1;
#X obj 218 155 r \$0-mod0;
#X msg 808 45 xrange 0 100;
#X msg 1049 45 xrange 0 100;
#X msg 808 74 yrange 0 5;
#X msg 1049 75 yrange 0 5;
#X obj 218 125 declare -path .;
#X obj 555 237 ramp~ 50;
#X obj 415 237 ramp~ 50;
#X obj 737 359 nbx 4 20 -1e+37 1e+37 0 0 empty \$0-mod0 empty 0 -10 1 14 #ffffff #000000 #000000 0 256;
#X obj 218 299 throw~ signal_dry_out;
#X connect 0 0 1 0;
#X connect 1 0 2 0;
#X connect 2 0 31 0;
#X connect 3 0 4 0;
#X connect 4 0 5 0;
#X connect 5 0 6 0;
#X connect 6 0 1 1;
#X connect 7 0 8 0;
#X connect 8 0 9 0;
#X connect 8 1 10 0;
#X connect 9 0 17 0;
#X connect 10 0 18 0;
#X connect 11 0 12 0;
#X connect 12 0 13 0;
#X connect 12 1 14 0;
#X connect 13 0 19 0;
#X connect 14 0 20 0;
#X connect 15 0 38 0;
#X connect 15 0 40 0;
#X connect 16 0 39 0;
#X connect 16 0 23 0;
#X connect 16 0 41 0;
#X connect 22 0 7 0;
#X connect 23 0 11 0;
#X connect 28 0 29 0;
#X connect 29 0 30 0;
#X connect 30 0 46 0;
#X connect 31 0 29 1;
#X connect 32 0 0 0;
#X connect 33 0 44 0;
#X connect 34 0 43 0;
#X connect 35 0 3 0;
#X connect 37 0 28 0;
#X connect 38 0 7 0;
#X connect 39 0 11 0;
#X connect 40 0 7 0;
#X connect 41 0 11 0;
#X connect 43 0 6 1;
#X connect 44 0 31 1;
#X coords 0 -1 1 1 600 300 1 700 100;
