#N struct 1063-point float x0 float y0 float xs float ys float fg float in float gridx float gridy;
#N struct 1123-point float x0 float y0 float xs float ys float fg float in float gridx float gridy;
#N struct 1136-point float x0 float y0 float xs float ys float fg float in float gridx float gridy;
#N canvas 4 44 1920 997 12;
#X declare -path .;
#X obj 1056 111 slider2d 150 150 1 0 0 1 1 255 255 255 0 0 0 0 0 0 1 0 empty empty;
#X obj 1056 307 unpack f f, f 11;
#X floatatom 1056 331 5 0 0 0 - - - 0;
#X floatatom 1130 331 5 0 0 0 - - - 0;
#X obj 1056 -15 loadbang;
#X obj 262 -53 cnv 19 126 76 empty empty empty 20 12 0 12 #e0e0e0 #404040 0;
#X obj 1055 275 nbx 5 20 -1e+37 1e+37 0 0 empty \$0-reverb_roomsize roomsize 0 -7 1 12 #dfdfdf #000000 #000000 0 256;
#X obj 1140 275 nbx 5 20 -1e+37 1e+37 0 0 empty \$0-reverb_wet dry\ /\ wet 0 -7 1 12 #dfdfdf #000000 #000000 0 256;
#X obj 262 38 declare -path .;
#X obj 262 178 else/pitch.shift~, f 19;
#X msg 323 369 wet \$1;
#X msg 392 393 size \$1;
#X obj 262 284 else/fbdelay~, f 19;
#X obj 262 412 else/mono.rev~;
#X obj 262 115 else/rm~, f 19;
#X obj 1056 384 s \$0-reverb_roomsize;
#X obj 1130 354 s \$0-reverb_wet;
#X obj 392 341 r \$0-reverb_roomsize;
#X obj 323 317 r \$0-reverb_wet;
#X obj 886 111 slider2d 150 150 50 1500 0 10000 1 255 255 255 0 0 0 0 0 0 813.667 0 empty empty;
#X obj 886 307 unpack f f, f 11;
#X floatatom 886 331 5 0 0 0 - - - 0;
#X floatatom 960 331 5 0 0 0 - - - 0;
#X obj 886 -15 loadbang;
#X obj 885 275 nbx 5 20 -1e+37 1e+37 0 0 empty \$0-delay_time delay\ time 0 -7 1 12 #dfdfdf #000000 #000000 0 256;
#X obj 970 275 nbx 5 20 -1e+37 1e+37 0 0 empty \$0-delay_feedback feedback 0 -7 1 12 #dfdfdf #000000 #000000 0 256;
#X msg 886 14 xrange 50 1500;
#X obj 886 384 s \$0-delay_time;
#X obj 960 354 s \$0-delay_feedback;
#X msg 886 33 yrange 0 10000;
#X obj 392 234 r \$0-delay_feedback;
#X obj 327 210 r \$0-delay_time;
#X obj 716 111 slider2d 150 150 0 4000 -24 24 1 255 255 255 0 0 0 0 0 0 0 -24 empty empty;
#X obj 716 307 unpack f f, f 11;
#X floatatom 716 331 5 0 0 0 - - - 0;
#X floatatom 790 331 5 0 0 0 - - - 0;
#X obj 716 -15 loadbang;
#X obj 715 275 nbx 5 20 -1e+37 1e+37 0 0 empty \$0-ring_modulation ring\ mod 0 -7 1 12 #dfdfdf #000000 #000000 0 256;
#X obj 800 275 nbx 5 20 -1e+37 1e+37 0 0 empty \$0-pitch_shift pitch\ shift 0 -7 1 12 #dfdfdf #000000 #000000 0 256;
#X obj 327 152 r \$0-pitch_shift;
#X obj 392 92 r \$0-ring_modulation;
#X obj 716 384 s \$0-ring_modulation;
#X obj 790 354 s \$0-pitch_shift;
#X msg 716 33 yrange -24 24;
#X msg 716 14 xrange 0 4000;
#X obj 327 234 ramp~ 300;
#X obj 392 258 ramp~ 300;
#X obj 323 341 ramp 300;
#X obj 392 365 ramp 300;
#X obj 262 68 inlet~;
#X obj 262 453 outlet~;
#X msg 716 52 size 150;
#X msg 886 52 size 150;
#X msg 1056 52 size 150;
#X msg 1056 33 yrange 0 1;
#X msg 1056 14 xrange 1 0;
#X msg 1056 71 set 1 0;
#X msg 886 71 set 0 0;
#X msg 716 71 set 0 0;
#X connect 0 0 1 0;
#X connect 1 0 2 0;
#X connect 1 1 3 0;
#X connect 2 0 15 0;
#X connect 3 0 16 0;
#X connect 4 0 54 0;
#X connect 4 0 55 0;
#X connect 4 0 53 0;
#X connect 4 0 56 0;
#X connect 4 0 0 0;
#X connect 9 0 12 0;
#X connect 10 0 13 0;
#X connect 11 0 13 0;
#X connect 12 0 13 0;
#X connect 13 0 50 0;
#X connect 14 0 9 0;
#X connect 17 0 48 0;
#X connect 18 0 47 0;
#X connect 19 0 20 0;
#X connect 20 0 21 0;
#X connect 20 1 22 0;
#X connect 21 0 27 0;
#X connect 22 0 28 0;
#X connect 23 0 26 0;
#X connect 23 0 52 0;
#X connect 23 0 29 0;
#X connect 23 0 57 0;
#X connect 23 0 19 0;
#X connect 26 0 19 0;
#X connect 29 0 19 0;
#X connect 30 0 46 0;
#X connect 31 0 45 0;
#X connect 32 0 33 0;
#X connect 33 0 34 0;
#X connect 33 1 35 0;
#X connect 34 0 41 0;
#X connect 35 0 42 0;
#X connect 36 0 44 0;
#X connect 36 0 51 0;
#X connect 36 0 43 0;
#X connect 36 0 58 0;
#X connect 36 0 32 0;
#X connect 39 0 9 1;
#X connect 40 0 14 1;
#X connect 43 0 32 0;
#X connect 44 0 32 0;
#X connect 45 0 12 1;
#X connect 46 0 12 2;
#X connect 47 0 10 0;
#X connect 48 0 11 0;
#X connect 49 0 14 0;
#X connect 51 0 32 0;
#X connect 52 0 19 0;
#X connect 53 0 0 0;
#X connect 54 0 0 0;
#X connect 55 0 0 0;
#X connect 56 0 0 0;
#X connect 57 0 19 0;
#X connect 58 0 32 0;
#X coords 0 -1 1 1 520 200 2 700 100;
