#N struct 1063-point float x0 float y0 float xs float ys float fg float in float gridx float gridy;
#N struct 1123-point float x0 float y0 float xs float ys float fg float in float gridx float gridy;
#N struct 1136-point float x0 float y0 float xs float ys float fg float in float gridx float gridy;
#N canvas 4 44 1920 997 12;
#X declare -path .;
#X obj 1321 137 slider2d 200 200 0.5 1 0 1 1 255 255 255 0 0 0 0 0 0 0.5 0 empty empty;
#X obj 1321 419 unpack f f, f 11;
#X floatatom 1321 443 5 0 0 0 - - - 0;
#X floatatom 1395 443 5 0 0 0 - - - 0;
#X obj 1321 26 loadbang;
#X obj 700 -93 cnv 19 126 76 empty empty empty 20 12 0 12 #e0e0e0 #404040 0;
#X msg 1321 99 size 200;
#X obj 1320 353 nbx 6 20 -1e+37 1e+37 0 0 empty \$0-reverb_roomsize empty 0 -10 1 14 #dfdfdf #000000 #000000 0 256;
#X obj 1444 353 nbx 6 20 -1e+37 1e+37 0 0 empty \$0-reverb_wet empty 0 -10 1 14 #dfdfdf #000000 #000000 0 256;
#X obj 262 38 declare -path .;
#X msg 1321 74 yrange 0 1;
#X obj 262 178 else/pitch.shift~, f 19;
#X msg 323 369 wet \$1;
#X msg 392 393 size \$1;
#X obj 262 284 else/fbdelay~, f 19;
#X obj 262 412 else/mono.rev~;
#X obj 262 115 else/rm~, f 19;
#X msg 1321 49 xrange 0.5 1;
#X obj 1321 496 s \$0-reverb_roomsize;
#X obj 1395 466 s \$0-reverb_wet;
#X obj 392 341 r \$0-reverb_roomsize;
#X obj 323 317 r \$0-reverb_wet;
#X obj 1039 137 slider2d 200 200 50 1500 0 10000 1 255 255 255 0 0 0 0 0 0 1028.75 10000 empty empty;
#X obj 1039 419 unpack f f, f 11;
#X floatatom 1039 443 5 0 0 0 - - - 0;
#X floatatom 1113 443 5 0 0 0 - - - 0;
#X obj 1039 16 loadbang;
#X msg 1039 99 size 200;
#X obj 1038 353 nbx 6 20 -1e+37 1e+37 0 0 empty \$0-delay_time empty 0 -10 1 14 #dfdfdf #000000 #000000 0 256;
#X obj 1162 353 nbx 6 20 -1e+37 1e+37 0 0 empty \$0-delay_feedback empty 0 -10 1 14 #dfdfdf #000000 #000000 0 256;
#X msg 1039 39 xrange 50 1500;
#X obj 1039 496 s \$0-delay_time;
#X obj 1113 466 s \$0-delay_feedback;
#X msg 1039 69 yrange 0 10000;
#X obj 392 234 r \$0-delay_feedback;
#X obj 327 210 r \$0-delay_time;
#X obj 769 137 slider2d 200 200 0 4000 -24 24 1 255 255 255 0 0 0 0 0 0 1360 2.16 empty empty;
#X obj 769 419 unpack f f, f 11;
#X floatatom 769 443 5 0 0 0 - - - 0;
#X floatatom 843 443 5 0 0 0 - - - 0;
#X obj 769 16 loadbang;
#X msg 769 99 size 200;
#X obj 768 353 nbx 6 20 -1e+37 1e+37 0 0 empty \$0-ring_modulation empty 0 -10 1 14 #dfdfdf #000000 #000000 0 256;
#X obj 892 353 nbx 6 20 -1e+37 1e+37 0 0 empty \$0-pitch_shift empty 0 -10 1 14 #dfdfdf #000000 #000000 0 256;
#X obj 327 152 r \$0-pitch_shift;
#X obj 392 92 r \$0-ring_modulation;
#X obj 769 496 s \$0-ring_modulation;
#X obj 843 466 s \$0-pitch_shift;
#X msg 770 69 yrange -24 24;
#X msg 769 39 xrange 0 4000;
#X obj 327 234 ramp~ 300;
#X obj 392 258 ramp~ 300;
#X obj 323 341 ramp 300;
#X obj 392 365 ramp 300;
#X obj 262 68 inlet~;
#X obj 262 453 outlet~;
#X connect 0 0 1 0;
#X connect 1 0 2 0;
#X connect 1 1 3 0;
#X connect 2 0 18 0;
#X connect 3 0 19 0;
#X connect 4 0 17 0;
#X connect 4 0 10 0;
#X connect 6 0 0 0;
#X connect 10 0 0 0;
#X connect 11 0 14 0;
#X connect 12 0 15 0;
#X connect 13 0 15 0;
#X connect 14 0 15 0;
#X connect 15 0 55 0;
#X connect 16 0 11 0;
#X connect 17 0 0 0;
#X connect 20 0 53 0;
#X connect 21 0 52 0;
#X connect 22 0 23 0;
#X connect 23 0 24 0;
#X connect 23 1 25 0;
#X connect 24 0 31 0;
#X connect 25 0 32 0;
#X connect 26 0 30 0;
#X connect 26 0 27 0;
#X connect 26 0 33 0;
#X connect 27 0 22 0;
#X connect 30 0 22 0;
#X connect 33 0 22 0;
#X connect 34 0 51 0;
#X connect 35 0 50 0;
#X connect 36 0 37 0;
#X connect 37 0 38 0;
#X connect 37 1 39 0;
#X connect 38 0 46 0;
#X connect 39 0 47 0;
#X connect 40 0 49 0;
#X connect 40 0 41 0;
#X connect 40 0 48 0;
#X connect 41 0 36 0;
#X connect 44 0 11 1;
#X connect 45 0 16 1;
#X connect 48 0 36 0;
#X connect 49 0 36 0;
#X connect 50 0 14 1;
#X connect 51 0 14 2;
#X connect 52 0 12 0;
#X connect 53 0 13 0;
#X connect 54 0 16 0;
#X coords 0 -1 1 1 900 300 1 700 100;
