#N canvas 0 23 1280 668 12;
#X obj 346 297 random.abs;
#X obj 564 297 random.abs;
#X obj 251 143 tgl 30 0 empty empty empty 17 7 0 10 -204786 -1 -1 0
1;
#X obj 349 227 hsl 75 15 0 1 0 0 empty empty empty -2 -8 0 10 -204786
-1 -1 1258 1;
#X obj 567 227 hsl 75 15 0 1 0 0 empty empty empty -2 -8 0 10 -204786
-1 -1 1258 1;
#X obj 251 337 expr~ if($v1 > 0 \, $v2 \, 1), f 14;
#X obj 469 337 expr~ if($v1 > 0 \, $v2 \, 1), f 14;
#X obj 346 122 loadbang;
#X obj 469 173 tgl 15 0 empty empty empty 17 7 0 10 -262144 -1 -1 0
1;
#X obj 251 102 inlet;
#X obj 302 208 inlet;
#X obj 522 208 inlet;
#X obj 251 375 outlet~;
#X obj 469 375 outlet~;
#X obj 564 247 * 3000;
#X obj 564 271 + 500;
#X obj 346 271 + 500;
#X obj 346 247 * 3000;
#X msg 564 141 0.17;
#X msg 346 146 0.17;
#X connect 0 0 5 1;
#X connect 1 0 6 1;
#X connect 2 0 5 0;
#X connect 2 0 8 0;
#X connect 3 0 17 0;
#X connect 4 0 14 0;
#X connect 5 0 12 0;
#X connect 6 0 13 0;
#X connect 7 0 19 0;
#X connect 7 0 18 0;
#X connect 8 0 6 0;
#X connect 9 0 2 0;
#X connect 10 0 3 0;
#X connect 11 0 4 0;
#X connect 14 0 15 0;
#X connect 15 0 1 0;
#X connect 16 0 0 0;
#X connect 17 0 16 0;
#X connect 18 0 4 0;
#X connect 19 0 3 0;
