#N canvas 0 23 1280 668 12;
#X obj 262 157 tgl 15 0 empty empty empty 17 7 0 10 -262144 -1 -1 0
1;
#X obj 262 204 random 5;
#X obj 262 228 + 1;
#X obj 262 252 / 5;
#X floatatom 262 306 5 0 0 0 - - -;
#X obj 262 119 r random.on-off;
#X obj 262 180 metro 1500;
#X obj 381 119 inlet;
#X floatatom 381 162 5 0 0 0 - - -;
#X obj 381 316 - 200;
#X obj 262 335 pack f f;
#X obj 262 279 / 1;
#X obj 431 119 inlet;
#X floatatom 431 261 5 0 0 0 - - -;
#X obj 262 362 line;
#X obj 262 414 outlet;
#X obj 262 386 *;
#X msg 500 143 1500;
#X obj 500 118 loadbang;
#X connect 0 0 6 0;
#X connect 1 0 2 0;
#X connect 2 0 3 0;
#X connect 3 0 11 0;
#X connect 4 0 10 0;
#X connect 5 0 0 0;
#X connect 6 0 1 0;
#X connect 7 0 8 0;
#X connect 8 0 6 1;
#X connect 8 0 9 0;
#X connect 9 0 10 1;
#X connect 10 0 14 0;
#X connect 11 0 4 0;
#X connect 12 0 13 0;
#X connect 13 0 11 1;
#X connect 14 0 16 0;
#X connect 14 0 16 1;
#X connect 16 0 15 0;
#X connect 17 0 8 0;
#X connect 18 0 17 0;
