#N canvas 0 44 1920 997 12;
#N canvas 953 0 958 988 key_config_storage 1;
#N canvas 156 156 450 250 (subpatch) 0;
#X array key_config_storage 8 float 3;
#A 0 111 106 107 108 121 117 105 111;
#X coords 0 1 8 245 200 140 1 0 0;
#X restore 10 20 graph;
#X obj 10 200 r key_config_storage;
#X obj 263 268 f;
#X obj 303 268 + 1;
#X obj 263 292 % 8;
#X obj 77 246 t f b, f 27;
#X obj 10 224 unpack s f;
#X floatatom 10 436 5 0 0 0 - - - 0;
#X floatatom 10 483 5 0 0 0 - - - 0;
#X obj 10 459 array get key_config_storage;
#X obj 1097 371 key;
#X floatatom 1097 395 5 0 0 0 - - - 0;
#X obj 77 337 tabwrite key_config_storage;
#X floatatom 263 316 5 0 0 0 - - - 0;
#X obj 77 270 del 100;
#X connect 1 0 6 0;
#X connect 2 0 3 0;
#X connect 2 0 4 0;
#X connect 3 0 2 1;
#X connect 4 0 13 0;
#X connect 5 0 14 0;
#X connect 5 1 2 0;
#X connect 6 1 5 0;
#X connect 7 0 9 0;
#X connect 9 0 8 0;
#X connect 10 0 11 0;
#X connect 13 0 12 1;
#X connect 14 0 12 0;
#X restore 32 73 pd key_config_storage;
#X text 29 23 Keyboard Configuration Storage;
