#N canvas 0 44 1920 997 12;
#N canvas 952 0 960 997 key_config_storage 0;
#X obj 10 301 f;
#X obj 50 301 + 1;
#X obj 10 325 % 8;
#X obj 10 250 route key_config;
#X obj 10 224 list trim;
#X obj 10 275 t b f, f 26;
#X obj 10 349 + 1;
#X obj 236 249 loadbang;
#X obj 236 299 s load_key_config_1;
#X obj 236 349 loadbang;
#X obj 236 399 s load_key_config_2;
#X obj 10 200 r key_config;
#X obj 236 275 array get \$0-key_config_storage 1 4;
#X obj 236 375 array get \$0-key_config_storage 5 8;
#X obj 10 415 pack f f \$0, f 26;
#X msg 10 441 \; \$3-key_config_storage \$1 \$2;
#X floatatom 10 373 5 0 0 0 - - - 0;
#X obj 236 323 print;
#N canvas 0 50 450 250 (subpatch) 0;
#X array \$0-key_config_storage 9 float 3;
#A 0 0 104 106 107 108 121 117 105 111;
#X coords 0 245 9 1 200 140 1 0 0;
#X restore 10 20 graph;
#X connect 0 0 1 0;
#X connect 0 0 2 0;
#X connect 1 0 0 1;
#X connect 2 0 6 0;
#X connect 3 0 5 0;
#X connect 4 0 3 0;
#X connect 5 0 0 0;
#X connect 5 1 14 1;
#X connect 6 0 16 0;
#X connect 7 0 12 0;
#X connect 9 0 13 0;
#X connect 11 0 4 0;
#X connect 12 0 8 0;
#X connect 12 0 17 0;
#X connect 13 0 10 0;
#X connect 14 0 15 0;
#X connect 16 0 14 0;
#X restore 32 73 pd key_config_storage;
#X text 29 23 Keyboard Configuration Storage;
